<svg width="24" height="24" viewBox="0 0 24 24" fill="none" xmlns="http://www.w3.org/2000/svg">
<path d="M12.0004 4.803C7.61513 4.803 4.19738 7.548 0.00488281 11.9977C3.61688 15.8025 6.64763 19.1978 12.0004 19.1978C17.3531 19.1978 21.2869 14.9002 23.9959 12.0787C21.2231 8.7735 17.2886 4.80375 12.0004 4.80375V4.803ZM12.0004 18.3975C7.24838 18.3975 4.38038 15.4507 1.10738 11.9985C5.00138 7.938 8.09738 5.60325 12.0004 5.60325C16.6211 5.60325 20.2316 8.9355 22.9189 12.0465C20.2766 14.802 16.6991 18.3983 12.0004 18.3983V18.3975Z" fill="black" fill-opacity="0.35"/>
<path d="M11.9997 7.20225C9.35367 7.20225 7.20117 9.35475 7.20117 12C7.20117 14.6452 9.35367 16.7977 11.9997 16.7977C14.6457 16.7977 16.7982 14.6452 16.7982 12C16.7982 9.35475 14.6457 7.20225 11.9997 7.20225ZM11.9997 15.9982C9.79542 15.9982 8.00142 14.205 8.00142 12C8.00142 9.795 9.79542 8.00175 11.9997 8.00175C14.2039 8.00175 15.9979 9.795 15.9979 12C15.9979 14.2042 14.2039 15.9982 11.9997 15.9982Z" fill="black" fill-opacity="0.35"/>
<path d="M12.0002 9.201C10.4567 9.201 9.20117 10.4565 9.20117 12C9.20117 13.5435 10.4567 14.799 12.0002 14.799C13.5437 14.799 14.7992 13.5435 14.7992 12C14.7992 10.4565 13.5437 9.201 12.0002 9.201ZM12.0002 13.9995C10.8977 13.9995 10.0007 13.1025 10.0007 12C10.0007 10.8975 10.8977 10.0005 12.0002 10.0005C13.1027 10.0005 13.9997 10.8975 13.9997 12C13.9997 13.1025 13.1027 13.9995 12.0002 13.9995Z" fill="black" fill-opacity="0.35"/>
</svg>
