<svg width="24" height="24" viewBox="0 0 24 24" fill="none" xmlns="http://www.w3.org/2000/svg">
<path d="M17.7898 7.20884C17.3437 5.2998 16.212 3.62106 14.6097 2.49134C13.0075 1.36162 11.0462 0.859577 9.09816 1.08053C7.15016 1.30148 5.35111 2.23005 4.04257 3.68993C2.73404 5.14981 2.00712 7.03936 1.99984 8.99984C1.99886 10.2782 2.30767 11.5378 2.89984 12.6708C1.82097 13.249 0.966238 14.1711 0.471458 15.2906C-0.0233229 16.4102 -0.129776 17.663 0.16901 18.85C0.467797 20.037 1.15469 21.0901 2.12054 21.8419C3.0864 22.5938 4.27582 23.0014 5.49984 22.9998H15.9998C17.961 22.9933 19.8514 22.2667 21.312 20.958C22.7726 19.6493 23.7015 17.8496 23.9224 15.901C24.1433 13.9523 23.6407 11.9904 22.5102 10.3879C21.3796 8.78547 19.6998 7.65413 17.7898 7.20884ZM16.7468 20.2758C16.2833 20.7388 15.655 20.9989 14.9998 20.9989C14.3447 20.9989 13.7164 20.7388 13.2528 20.2758L10.0528 17.0758L11.4668 15.6618L13.9998 18.1998V9.99984H15.9998V18.1998L18.5348 15.6648L19.9488 17.0788L16.7468 20.2758Z" fill="white"/>
</svg>
