<svg width="18" height="24" viewBox="0 0 18 24" fill="none" xmlns="http://www.w3.org/2000/svg">
<path d="M16.1997 9.6H14.9997V6C14.9997 2.69161 12.308 0 8.99963 0C5.69123 0 2.99962 2.69161 2.99962 6V9.6H1.79961C1.1368 9.6 0.599609 10.1372 0.599609 10.8V22.8C0.599609 23.4628 1.1368 24 1.79961 24H16.1997C16.8625 24 17.3997 23.4628 17.3997 22.8V10.8C17.3997 10.1372 16.8625 9.6 16.1997 9.6ZM4.19962 6C4.19962 3.3488 6.34842 1.2 8.99963 1.2C11.6508 1.2 13.7996 3.3488 13.7996 6V9.6H4.19962V6ZM16.1997 22.8H1.79961V10.8H16.1997V22.8Z" fill="black" fill-opacity="0.35"/>
</svg>
