<svg width="24" height="30" viewBox="0 0 24 30" fill="none" xmlns="http://www.w3.org/2000/svg">
<path d="M14.3162 24H3.68384C2.70682 24 1.76983 23.6153 1.07897 22.9305C0.388118 22.2456 0 21.3168 0 20.3484L0 3.65163C0 2.68315 0.388118 1.75435 1.07897 1.06954C1.76983 0.384724 2.70682 0 3.68384 0L12.9188 0L18 5.05939V20.3484C18 21.3168 17.6119 22.2456 16.921 22.9305C16.2302 23.6153 15.2932 24 14.3162 24Z" fill="#5380C0"/>
<path opacity="0.5" d="M18.0003 5.06191H13.9735C13.8362 5.06291 13.7 5.03692 13.5729 4.98545C13.4458 4.93397 13.3302 4.85804 13.2329 4.76202C13.1356 4.66601 13.0584 4.55183 13.0058 4.42608C12.9533 4.30032 12.9264 4.16549 12.9268 4.02938V0" fill="white"/>
<path d="M6.60534 12.9419C6.62298 13.1932 6.58683 13.4454 6.49926 13.682C6.4117 13.9185 6.27469 14.134 6.09722 14.3144C5.68191 14.6565 5.14969 14.8269 4.61098 14.7904H3.55664V11.1614H4.70498C5.21307 11.1305 5.71306 11.2987 6.09722 11.6298C6.26994 11.801 6.40443 12.0063 6.49196 12.2323C6.57949 12.4583 6.61812 12.7001 6.60534 12.9419ZM5.79743 12.9595C5.79743 12.1813 5.45191 11.791 4.75579 11.791H4.33406V14.1557H4.66687C5.4138 14.1557 5.78727 13.757 5.78727 12.9595H5.79743Z" fill="white"/>
<path d="M10.6704 12.9696C10.7058 13.4706 10.5467 13.9661 10.2258 14.3547C10.0579 14.5218 9.85584 14.6514 9.63325 14.7348C9.41065 14.8182 9.17264 14.8534 8.93518 14.8382C8.69732 14.8536 8.45887 14.8185 8.23583 14.7351C8.0128 14.6517 7.81033 14.522 7.64203 14.3547C7.31831 13.9642 7.15663 13.4663 7.1898 12.962C7.15694 12.4624 7.31882 11.9693 7.64203 11.5845C7.81203 11.4183 8.01563 11.2898 8.2394 11.2073C8.46318 11.1248 8.70204 11.0903 8.94026 11.106C9.17733 11.0902 9.41507 11.1248 9.63762 11.2073C9.86016 11.2898 10.0624 11.4184 10.2309 11.5845C10.5489 11.9744 10.7059 12.4694 10.6704 12.9696ZM7.99771 12.9696C7.97359 13.2921 8.0556 13.6138 8.23144 13.8863C8.3129 13.9906 8.41902 14.0734 8.54042 14.1274C8.66183 14.1814 8.79479 14.205 8.92756 14.196C9.54746 14.196 9.85741 13.7872 9.85741 12.9696C9.85741 12.1536 9.54746 11.7431 8.93264 11.7431C8.79951 11.7342 8.66619 11.7577 8.54438 11.8117C8.42256 11.8657 8.31598 11.9485 8.23398 12.0529C8.06093 12.3264 7.9808 12.6476 8.00533 12.9696H7.99771Z" fill="white"/>
<path d="M12.9921 11.7482C12.8593 11.744 12.7276 11.7729 12.6091 11.8323C12.4906 11.8917 12.389 11.9797 12.3137 12.0881C12.1378 12.358 12.0533 12.6765 12.0724 12.9973C12.0724 13.8082 12.3798 14.2111 12.9921 14.2111C13.312 14.199 13.6278 14.1352 13.927 14.0222V14.6669C13.6041 14.7953 13.2586 14.8586 12.9108 14.8533C12.6821 14.8657 12.4535 14.8274 12.2416 14.7411C12.0298 14.6549 11.84 14.5228 11.6862 14.3547C11.3806 13.961 11.2306 13.4702 11.2645 12.9746C11.257 12.6336 11.3274 12.2952 11.4702 11.9849C11.6017 11.711 11.8144 11.4834 12.08 11.3326C12.358 11.1773 12.673 11.099 12.9921 11.106C13.3641 11.1083 13.7307 11.1944 14.0642 11.3578L13.8101 11.9824C13.6762 11.9186 13.5388 11.8623 13.3985 11.8136C13.2676 11.7698 13.1303 11.7477 12.9921 11.7482Z" fill="white"/>
<path d="M17.107 28.6C20.3253 28.6 22.9493 26.0115 22.9493 22.8C22.9493 19.5885 20.3253 17 17.107 17C13.8887 17 11.2646 19.5885 11.2646 22.8C11.2646 26.0115 13.8887 28.6 17.107 28.6Z" fill="#A9BFE0" stroke="white" stroke-width="2"/>
<path fill-rule="evenodd" clip-rule="evenodd" d="M19.2473 23.5029L17.3213 25.4121C17.2031 25.5293 17.0114 25.5293 16.8933 25.4121L14.9672 23.5029C14.849 23.3858 14.849 23.1958 14.9672 23.0787C15.0854 22.9615 15.277 22.9615 15.3952 23.0787L16.8046 24.4757L16.8046 20.4C16.8046 20.2343 16.9401 20.1 17.1073 20.1C17.2744 20.1 17.4099 20.2343 17.4099 20.4L17.4099 24.4757L18.8193 23.0787C18.9375 22.9615 19.1291 22.9615 19.2473 23.0787C19.3655 23.1958 19.3655 23.3858 19.2473 23.5029Z" fill="white"/>
</svg>
