<svg width="24" height="30" viewBox="0 0 24 30" fill="none" xmlns="http://www.w3.org/2000/svg">
<path d="M14.3162 24H3.68384C2.70682 24 1.76983 23.6153 1.07897 22.9305C0.388118 22.2456 0 21.3168 0 20.3484L0 3.65163C0 2.68315 0.388118 1.75435 1.07897 1.06954C1.76983 0.384724 2.70682 0 3.68384 0L12.9188 0L18 5.05939V20.3484C18 21.3168 17.6119 22.2456 16.921 22.9305C16.2302 23.6153 15.2932 24 14.3162 24Z" fill="#00AC54"/>
<path opacity="0.5" d="M18.0003 5.06191H13.9735C13.8362 5.06291 13.7 5.03692 13.5729 4.98545C13.4458 4.93397 13.3302 4.85804 13.2329 4.76202C13.1356 4.66601 13.0584 4.55183 13.0058 4.42608C12.9533 4.30032 12.9264 4.16549 12.9268 4.02938V0" fill="white"/>
<path d="M7.51982 14.7904H6.63315L5.77952 13.4178L4.92843 14.7904H4.09766L5.31205 12.9192L4.17387 11.1564H5.03259L5.82017 12.4609L6.60521 11.1614H7.44106L6.29272 12.9595L7.51982 14.7904Z" fill="white"/>
<path d="M7.97949 14.7903V11.1614H8.75691V14.1557H10.2406V14.7903H7.97949Z" fill="white"/>
<path d="M13.0411 13.783C13.0476 13.9308 13.0185 14.078 12.9562 14.2125C12.8939 14.3469 12.8002 14.4647 12.6829 14.5561C12.3936 14.7613 12.042 14.8618 11.6869 14.8407C11.329 14.8479 10.9743 14.7729 10.6504 14.6216V13.9064C10.853 14.0001 11.0628 14.0776 11.2779 14.1381C11.431 14.1802 11.589 14.2022 11.7479 14.2036C11.8866 14.2119 12.0244 14.1766 12.1417 14.1028C12.1869 14.0701 12.2232 14.0267 12.2471 13.9766C12.2711 13.9264 12.282 13.8711 12.2789 13.8157C12.2802 13.7471 12.2588 13.6798 12.2179 13.6243C12.1694 13.5617 12.11 13.5079 12.0426 13.4657C11.8895 13.3723 11.7309 13.2882 11.5675 13.2138C11.3855 13.1368 11.2146 13.036 11.0594 12.9142C10.9528 12.8231 10.8633 12.7139 10.7952 12.5918C10.7266 12.4524 10.6926 12.2987 10.6961 12.1435C10.6897 12.0013 10.7159 11.8594 10.7727 11.7286C10.8294 11.5977 10.9153 11.4813 11.0239 11.388C11.2857 11.1885 11.6113 11.0892 11.941 11.1085C12.1244 11.1077 12.3072 11.1305 12.4847 11.1765C12.671 11.2241 12.8528 11.2873 13.0284 11.3654L12.7743 11.9622C12.6163 11.8966 12.4542 11.8411 12.2891 11.796C12.1661 11.7654 12.0399 11.7493 11.9131 11.7482C11.7916 11.7414 11.6717 11.778 11.5752 11.8514C11.5385 11.8826 11.5092 11.9212 11.489 11.9647C11.4688 12.0081 11.4583 12.0554 11.4583 12.1032C11.4568 12.1659 11.4726 12.2277 11.504 12.2821C11.5451 12.3398 11.5968 12.3894 11.6565 12.4281C11.8156 12.5217 11.9802 12.6058 12.1493 12.68C12.4175 12.7891 12.6579 12.956 12.8531 13.1685C12.9856 13.3456 13.0521 13.5628 13.0411 13.783Z" fill="white"/>
<path d="M16.6607 28.6C19.879 28.6 22.503 26.0115 22.503 22.8C22.503 19.5885 19.879 17 16.6607 17C13.4424 17 10.8184 19.5885 10.8184 22.8C10.8184 26.0115 13.4424 28.6 16.6607 28.6Z" fill="#80D6A9" stroke="white" stroke-width="2"/>
<path fill-rule="evenodd" clip-rule="evenodd" d="M18.801 23.5029L16.875 25.4121C16.7568 25.5293 16.5652 25.5293 16.447 25.4121L14.5209 23.5029C14.4027 23.3858 14.4027 23.1958 14.5209 23.0787C14.6391 22.9615 14.8308 22.9615 14.9489 23.0787L16.3583 24.4757L16.3583 20.4C16.3583 20.2343 16.4938 20.1 16.661 20.1C16.8281 20.1 16.9636 20.2343 16.9636 20.4L16.9636 24.4757L18.373 23.0787C18.4912 22.9615 18.6828 22.9615 18.801 23.0787C18.9192 23.1958 18.9192 23.3858 18.801 23.5029Z" fill="white"/>
</svg>
