<svg width="24" height="30" viewBox="0 0 24 30" fill="none" xmlns="http://www.w3.org/2000/svg">
<path d="M14.191 24H3.65163C2.68315 24 1.75435 23.6153 1.06954 22.9305C0.384724 22.2456 0 21.3168 0 20.3484L0 3.65163C0 2.68315 0.384724 1.75435 1.06954 1.06954C1.75435 0.384724 2.68315 0 3.65163 0L12.8059 0L17.8426 5.05939V20.3484C17.8426 21.3168 17.4579 22.2456 16.7731 22.9305C16.0883 23.6153 15.1594 24 14.191 24Z" fill="#EE3E2C"/>
<path opacity="0.5" d="M17.8427 5.06191H13.851C13.7149 5.06291 13.58 5.03692 13.454 4.98545C13.328 4.93397 13.2134 4.85804 13.1169 4.76202C13.0205 4.66601 12.944 4.55183 12.8919 4.42608C12.8398 4.30032 12.8131 4.16549 12.8135 4.02938V0" fill="white"/>
<path d="M6.01903 12.2921C6.02947 12.4596 6.00181 12.6273 5.93813 12.7826C5.87444 12.9379 5.7764 13.0767 5.65135 13.1887C5.35274 13.4128 4.98382 13.5226 4.61127 13.4984H4.28136V14.7903H3.51074V11.1614H4.67171C5.03052 11.1347 5.38722 11.2355 5.67905 11.446C5.79672 11.5516 5.88857 11.6828 5.94752 11.8295C6.00646 11.9762 6.03093 12.1345 6.01903 12.2921ZM4.28136 12.8688H4.5332C4.72112 12.8827 4.90824 12.833 5.06457 12.7278C5.12428 12.6787 5.17142 12.6161 5.20208 12.5451C5.23274 12.4742 5.24603 12.397 5.24086 12.3198C5.24726 12.2465 5.23751 12.1726 5.21227 12.1034C5.18703 12.0342 5.14693 11.9714 5.09479 11.9194C4.96044 11.823 4.79621 11.7775 4.63141 11.791H4.28136V12.8688Z" fill="white"/>
<path d="M10.4788 12.9419C10.4962 13.1932 10.4604 13.4454 10.3736 13.682C10.2868 13.9185 10.151 14.134 9.97509 14.3144C9.56341 14.6564 9.03584 14.8269 8.50184 14.7903H7.4668V11.1614H8.6051C9.10956 11.1301 9.6061 11.2983 9.98768 11.6298C10.1566 11.8021 10.2876 12.0078 10.3722 12.2338C10.4568 12.4598 10.4931 12.701 10.4788 12.9419ZM9.67792 12.9595C9.67792 12.1813 9.33542 11.791 8.64539 11.791H8.23742V14.1557H8.56228C9.30604 14.1557 9.67792 13.757 9.67792 12.9595Z" fill="white"/>
<path d="M12.7506 14.7903H11.9951V11.1614H14.0778V11.791H12.7506V12.7278H13.9821V13.3473H12.7506V14.7903Z" fill="white"/>
<path d="M16.8 28.6C20.0033 28.6 22.6 26.0033 22.6 22.8C22.6 19.5967 20.0033 17 16.8 17C13.5967 17 11 19.5967 11 22.8C11 26.0033 13.5967 28.6 16.8 28.6Z" fill="#F79E95" stroke="white" stroke-width="2"/>
<path fill-rule="evenodd" clip-rule="evenodd" d="M18.9209 23.5029L17.0117 25.4121C16.8946 25.5293 16.7046 25.5293 16.5875 25.4121L14.6783 23.5029C14.5611 23.3858 14.5611 23.1958 14.6783 23.0787C14.7954 22.9615 14.9854 22.9615 15.1025 23.0787L16.4996 24.4757L16.4996 20.4C16.4996 20.2343 16.6339 20.1 16.7996 20.1C16.9653 20.1 17.0996 20.2343 17.0996 20.4L17.0996 24.4757L18.4967 23.0787C18.6138 22.9615 18.8038 22.9615 18.9209 23.0787C19.0381 23.1958 19.0381 23.3858 18.9209 23.5029Z" fill="white"/>
</svg>
