<svg width="24" height="30" viewBox="0 0 24 30" fill="none" xmlns="http://www.w3.org/2000/svg">
<path d="M14.3162 24H3.68384C2.70682 24 1.76983 23.6153 1.07897 22.9305C0.388118 22.2456 0 21.3168 0 20.3484L0 3.65163C0 2.68315 0.388118 1.75435 1.07897 1.06954C1.76983 0.384724 2.70682 0 3.68384 0L12.9188 0L18 5.05939V20.3484C18 21.3168 17.6119 22.2456 16.921 22.9305C16.2302 23.6153 15.2932 24 14.3162 24Z" fill="#596C89"/>
<path opacity="0.5" d="M18.0003 5.06191H13.9735C13.8362 5.06291 13.7 5.03692 13.5729 4.98545C13.4458 4.93397 13.3302 4.85804 13.2329 4.76202C13.1356 4.66601 13.0584 4.55183 13.0058 4.42608C12.9533 4.30032 12.9264 4.16549 12.9268 4.02938V0" fill="white"/>
<path d="M7.5737 14.7903H4.84766V14.2867L6.60574 11.796H4.89593V11.1614H7.52543V11.6651L5.77243 14.1633H7.5737V14.7903Z" fill="white"/>
<path d="M8.1582 14.7903V11.1614H8.92038V14.7903H8.1582Z" fill="white"/>
<path d="M12.3849 12.2921C12.3954 12.4596 12.3675 12.6273 12.3033 12.7826C12.239 12.9379 12.1401 13.0767 12.014 13.1887C11.7127 13.4128 11.3406 13.5226 10.9647 13.4984H10.6319V14.7903H9.85449V11.1614H11.0257C11.3877 11.1347 11.7475 11.2355 12.0419 11.446C12.1606 11.5516 12.2533 11.6828 12.3128 11.8295C12.3722 11.9762 12.3969 12.1345 12.3849 12.2921ZM10.6319 12.8688H10.886C11.079 12.8862 11.2722 12.8364 11.4322 12.7278C11.4924 12.6787 11.54 12.6161 11.5709 12.5451C11.6018 12.4742 11.6152 12.397 11.61 12.3198C11.6165 12.2465 11.6066 12.1726 11.5812 12.1034C11.5557 12.0342 11.5153 11.9714 11.4627 11.9194C11.3271 11.823 11.1615 11.7775 10.9952 11.791H10.6319V12.8688Z" fill="white"/>
<path d="M16.8189 28.6C20.0372 28.6 22.6612 26.0115 22.6612 22.8C22.6612 19.5885 20.0372 17 16.8189 17C13.6006 17 10.9766 19.5885 10.9766 22.8C10.9766 26.0115 13.6006 28.6 16.8189 28.6Z" fill="#ACB6C4" stroke="white" stroke-width="2"/>
<path fill-rule="evenodd" clip-rule="evenodd" d="M18.9592 23.5029L17.0332 25.4121C16.915 25.5293 16.7234 25.5293 16.6052 25.4121L14.6791 23.5029C14.561 23.3858 14.561 23.1958 14.6791 23.0787C14.7973 22.9615 14.989 22.9615 15.1071 23.0787L16.5165 24.4757L16.5165 20.4C16.5165 20.2343 16.652 20.1 16.8192 20.1C16.9863 20.1 17.1218 20.2343 17.1218 20.4L17.1218 24.4757L18.5312 23.0787C18.6494 22.9615 18.841 22.9615 18.9592 23.0787C19.0774 23.1958 19.0774 23.3858 18.9592 23.5029Z" fill="white"/>
</svg>
