<svg width="24" height="30" viewBox="0 0 24 30" fill="none" xmlns="http://www.w3.org/2000/svg">
<path d="M14.3162 24H3.68384C2.70682 24 1.76983 23.6153 1.07897 22.9305C0.388118 22.2456 0 21.3168 0 20.3484L0 3.65163C0 2.68315 0.388118 1.75435 1.07897 1.06954C1.76983 0.384724 2.70682 0 3.68384 0L12.9188 0L18 5.05939V20.3484C18 21.3168 17.6119 22.2456 16.921 22.9305C16.2302 23.6153 15.2932 24 14.3162 24Z" fill="#9954A1"/>
<path opacity="0.5" d="M18.0003 5.06191H13.9735C13.8362 5.06291 13.7 5.03692 13.5729 4.98545C13.4458 4.93397 13.3302 4.85804 13.2329 4.76202C13.1356 4.66601 13.0584 4.55183 13.0058 4.42608C12.9533 4.30032 12.9264 4.16549 12.9268 4.02938V0" fill="white"/>
<path d="M4.69734 13.3977V14.7903H3.91992V11.1614H4.98696C5.37665 11.1304 5.76601 11.2249 6.0972 11.4308C6.21931 11.5283 6.31571 11.6537 6.37811 11.7963C6.44051 11.9389 6.46704 12.0943 6.45542 12.2493C6.45736 12.4528 6.39519 12.6517 6.27758 12.8185C6.14796 12.9927 5.97205 13.1279 5.76946 13.2088C6.32077 14.0248 6.67899 14.5536 6.84667 14.7903H5.98287L5.10891 13.3977H4.69734ZM4.69734 12.7731H4.9514C5.14095 12.7862 5.33016 12.7433 5.49508 12.6497C5.5545 12.6058 5.60174 12.5476 5.63239 12.4807C5.66304 12.4138 5.67611 12.3402 5.67038 12.2669C5.67668 12.1955 5.6635 12.1237 5.63221 12.059C5.60093 11.9943 5.55269 11.9391 5.49254 11.8993C5.31955 11.8164 5.12792 11.7791 4.93615 11.791H4.70242L4.69734 12.7731Z" fill="white"/>
<path d="M9.54731 14.7903L9.29325 13.9265H7.94674L7.69268 14.7903H6.85938L8.12966 11.1463H9.07984L10.3781 14.7903H9.54731ZM9.09762 13.2793C8.85204 12.497 8.714 12.0537 8.68351 11.9496C8.65302 11.8464 8.63016 11.7658 8.61745 11.6978C8.56156 11.9093 8.4032 12.4332 8.14237 13.2693L9.09762 13.2793Z" fill="white"/>
<path d="M11.6231 13.3977V14.7903H10.8457V11.1614H11.9127C12.3007 11.1315 12.6881 11.226 13.0179 11.4309C13.2125 11.6008 13.339 11.8344 13.3744 12.0891C13.4099 12.3438 13.3519 12.6026 13.211 12.8185C13.0814 12.9927 12.9055 13.1279 12.7029 13.2088C13.2542 14.0248 13.6124 14.5536 13.7801 14.7903H12.9163L12.0347 13.3977H11.6231ZM11.6231 12.7731H11.8772C12.0667 12.7862 12.2559 12.7433 12.4209 12.6497C12.4803 12.6058 12.5275 12.5476 12.5582 12.4807C12.5888 12.4138 12.6019 12.3402 12.5962 12.267C12.6025 12.1955 12.5893 12.1237 12.558 12.059C12.5267 11.9943 12.4785 11.9392 12.4183 11.8993C12.2453 11.8164 12.0537 11.7791 11.8619 11.791H11.6282L11.6231 12.7731Z" fill="white"/>
<path d="M16.9781 28.6C20.1964 28.6 22.8204 26.0115 22.8204 22.8C22.8204 19.5885 20.1964 17 16.9781 17C13.7597 17 11.1357 19.5885 11.1357 22.8C11.1357 26.0115 13.7597 28.6 16.9781 28.6Z" fill="#CCA9D0" stroke="white" stroke-width="2"/>
<path fill-rule="evenodd" clip-rule="evenodd" d="M19.1184 23.5029L17.1924 25.4121C17.0742 25.5293 16.8825 25.5293 16.7644 25.4121L14.8383 23.5029C14.7201 23.3858 14.7201 23.1958 14.8383 23.0787C14.9565 22.9615 15.1481 22.9615 15.2663 23.0787L16.6757 24.4757L16.6757 20.4C16.6757 20.2343 16.8112 20.1 16.9784 20.1C17.1455 20.1 17.281 20.2343 17.281 20.4L17.281 24.4757L18.6904 23.0787C18.8086 22.9615 19.0002 22.9615 19.1184 23.0787C19.2366 23.1958 19.2366 23.3858 19.1184 23.5029Z" fill="white"/>
</svg>
