<svg xmlns="http://www.w3.org/2000/svg" viewBox="0 0 601.48 126.22"><g id="Слой_2" data-name="Слой 2"><g id="Layer_1" data-name="Layer 1"><path d="M205.72,1h9.77V61.52h-9.77Z"/><path d="M273.21,1V61.52H261.63L231.38,14.78l1,21.42V61.52h-9.77V1h11.49L264.31,47.7l-.87-21.35V1Z"/><path d="M278,31.28C278,13.39,291.18,0,309.15,0c14,0,25.15,8.47,29,21H327.64c-3.19-7.09-10-11.67-18.57-11.67-12.36,0-21.26,9.33-21.26,22s8.9,21.94,21.26,21.94c8.55,0,15.38-4.57,18.57-11.66H338.1c-3.8,12.53-15,21-29,21C291.18,62.56,278,49.16,278,31.28Z"/><path d="M402.21,31.28c-.08,17.8-13.65,31.28-31.36,31.28s-31.37-13.48-31.37-31.28S353.13,0,370.85,0,402.13,13.48,402.21,31.28Zm-52.88,0c0,12.61,9.25,21.94,21.52,21.94s21.43-9.33,21.43-21.94-9.25-22-21.43-22S349.33,18.66,349.33,31.28Z"/><path d="M456,1V37.41c0,16.85-10.54,25.15-24.45,25.15s-24.46-8.3-24.46-25.15V1H417V36.81c0,11.75,6.14,16.41,14.52,16.41S446,48.56,446,36.81V1Z"/><path d="M482.14,39h-9.33V61.52h-9.76V1h25c13.13,0,20.57,7.77,20.57,19.18,0,9.94-5.62,16.42-15.21,18.23l18.06,23.07h-12Zm-9.33-8.64H487c8,0,11.75-4.15,11.75-10s-3.8-9.94-11.75-9.94H472.81Z"/><path d="M558,44.15c0,13.22-11.75,18.41-22.55,18.41-16.94,0-24.37-9.34-26-19.79h9.85c1.82,7,6.48,10.63,16.07,10.63,8.12,0,12.79-3.2,12.79-8.81S543.24,38,532,35.51c-11.75-2.59-20.91-5.87-20.91-17.19C511.09,6.31,521.72,0,533.3,0c15.21,0,22.21,7.86,23.93,17.45h-9.85c-1.73-5-5.87-8.29-14-8.29s-12.53,3.63-12.53,8.9c0,4.32,3.45,5.7,13.48,7.86C549.63,29.29,558,32.49,558,44.15Z"/><path d="M571.75,10.37V26h27.57v9.33H571.75V52.19h29.73v9.33H562V1h39.49v9.33Z"/><path d="M0,1H4.52V62H0Z"/><path d="M17.26,1h4.51V62H17.26Z"/><path d="M34.51,1H39V62H34.51Z"/><path d="M51.76,1h4.51V62H51.76Z"/><path d="M69,1h4.51V62H69Z"/><path d="M86.26,1h4.51V62H86.26Z"/><path d="M191.79,1V5.55H98V1Z"/><path d="M191.79,15.1v4.51H98V15.1Z"/><path d="M191.79,29.17v4.51H98V29.17Z"/><path d="M191.79,43.24v4.51H98V43.24Z"/><path d="M191.79,57.3v4.51H98V57.3Z"/><path d="M601.48,72.57v4.51H0V72.57Z"/><path d="M7.82,125.85H0V92.35H7.82Z"/><path d="M80.34,92.35v33.5h-4a3.49,3.49,0,0,1-1.5-.28,3.85,3.85,0,0,1-1.21-1l-15.8-20c.06.6.11,1.18.13,1.74s0,1.08,0,1.57v18H51.09V92.35h4.09a6.58,6.58,0,0,1,.85.05,2.25,2.25,0,0,1,.62.17,1.66,1.66,0,0,1,.53.36,6.16,6.16,0,0,1,.58.62l15.93,20.12c-.07-.65-.13-1.27-.16-1.88s0-1.17,0-1.71V92.35Z"/><path d="M154,109.09a17.45,17.45,0,0,1-1.26,6.7,15.6,15.6,0,0,1-3.52,5.31,16,16,0,0,1-5.49,3.5,19.3,19.3,0,0,1-7.11,1.25h-13V92.35h13a19.1,19.1,0,0,1,7.11,1.27,16.17,16.17,0,0,1,5.49,3.49,15.56,15.56,0,0,1,3.52,5.3A17.42,17.42,0,0,1,154,109.09Zm-8,0a14.51,14.51,0,0,0-.64-4.48,9.54,9.54,0,0,0-1.85-3.39,8.05,8.05,0,0,0-3-2.14,10,10,0,0,0-4-.75h-5.2v21.54h5.2a10,10,0,0,0,4-.74,8.05,8.05,0,0,0,3-2.14,9.71,9.71,0,0,0,1.85-3.39A14.71,14.71,0,0,0,146.05,109.09Z"/><path d="M209.38,119.71a7.23,7.23,0,0,0,2.79-.51,5.68,5.68,0,0,0,2.08-1.49,6.53,6.53,0,0,0,1.3-2.35,10.28,10.28,0,0,0,.45-3.17V92.35h7.77v19.84a15.44,15.44,0,0,1-1,5.66,12.72,12.72,0,0,1-2.86,4.44,13.1,13.1,0,0,1-4.53,2.9,18.08,18.08,0,0,1-12,0,12.92,12.92,0,0,1-4.53-2.9,12.55,12.55,0,0,1-2.85-4.44,15.65,15.65,0,0,1-1-5.66V92.35h7.77v19.82a10.22,10.22,0,0,0,.45,3.16,6.62,6.62,0,0,0,1.3,2.37,5.7,5.7,0,0,0,2.08,1.5A7.24,7.24,0,0,0,209.38,119.71Z"/><path d="M285.14,99.16a2.89,2.89,0,0,1-.73.83,1.64,1.64,0,0,1-1,.27,2.37,2.37,0,0,1-1.14-.33l-1.38-.75a12.09,12.09,0,0,0-1.76-.75,7.1,7.1,0,0,0-2.25-.33,4.88,4.88,0,0,0-3.26.93,3.18,3.18,0,0,0-1.07,2.52,2.34,2.34,0,0,0,.65,1.68,5.58,5.58,0,0,0,1.69,1.15,18.07,18.07,0,0,0,2.39.88c.89.27,1.81.57,2.75.9a25.27,25.27,0,0,1,2.74,1.16,9.1,9.1,0,0,1,2.39,1.7,7.75,7.75,0,0,1,1.69,2.52,8.93,8.93,0,0,1,.65,3.57,11.6,11.6,0,0,1-.81,4.35,10,10,0,0,1-2.33,3.53,11,11,0,0,1-3.77,2.37,14.18,14.18,0,0,1-5.09.86,16.67,16.67,0,0,1-3.19-.32,19.53,19.53,0,0,1-3.14-.91,17.92,17.92,0,0,1-2.85-1.39,12.61,12.61,0,0,1-2.32-1.79l2.3-3.64a2.16,2.16,0,0,1,.72-.65,1.88,1.88,0,0,1,1-.27,2.64,2.64,0,0,1,1.39.44l1.59,1a13.24,13.24,0,0,0,2,1,7.68,7.68,0,0,0,2.72.44,5.14,5.14,0,0,0,3.28-.93,3.53,3.53,0,0,0,1.18-3,2.82,2.82,0,0,0-.65-1.91,4.92,4.92,0,0,0-1.69-1.21,14.9,14.9,0,0,0-2.38-.86q-1.33-.36-2.73-.81a19.64,19.64,0,0,1-2.74-1.11,8.56,8.56,0,0,1-2.38-1.72,8,8,0,0,1-1.69-2.67,10.55,10.55,0,0,1-.64-3.94,9.3,9.3,0,0,1,.76-3.68,9.55,9.55,0,0,1,2.23-3.2,11,11,0,0,1,3.61-2.24,13.26,13.26,0,0,1,4.89-.84,18.62,18.62,0,0,1,3,.24,16.3,16.3,0,0,1,2.77.72A15.13,15.13,0,0,1,285,94.06a11.64,11.64,0,0,1,2,1.49Z"/><path d="M353,98.51h-9.43v27.34h-7.77V98.51h-9.43V92.35H353Z"/><path d="M421.1,125.85h-7a3,3,0,0,1-2.81-1.47l-5.56-9.72a2.64,2.64,0,0,0-.87-.91,2.78,2.78,0,0,0-1.38-.29h-2v12.39h-7.77V92.35h10.9a22.25,22.25,0,0,1,6.19.75A11.66,11.66,0,0,1,415,95.18a7.87,7.87,0,0,1,2.35,3.15,10.44,10.44,0,0,1,.74,4,10.73,10.73,0,0,1-.44,3.09,9.5,9.5,0,0,1-3.39,4.87,11.56,11.56,0,0,1-2.88,1.59,6.88,6.88,0,0,1,2.62,2.36ZM404.59,108.1a8,8,0,0,0,2.7-.4,4.93,4.93,0,0,0,1.83-1.12,4.22,4.22,0,0,0,1-1.66,6.26,6.26,0,0,0,.32-2.06A4.34,4.34,0,0,0,409,99.41a6.7,6.7,0,0,0-4.45-1.24h-3.13v9.93Z"/><path d="M468.53,125.85h-7.82V92.35h7.82Z"/><path d="M541.85,125.85h-6a2.59,2.59,0,0,1-1.63-.47,2.82,2.82,0,0,1-.94-1.21l-2-5.84H518.54l-2,5.84a2.83,2.83,0,0,1-.91,1.17,2.53,2.53,0,0,1-1.62.51H508l13-33.5h8Zm-12.34-12.8-3.11-9.18c-.23-.58-.47-1.27-.73-2.06s-.52-1.64-.78-2.56c-.23.93-.48,1.8-.74,2.6s-.51,1.48-.74,2.07l-3.08,9.13Z"/><path d="M601.48,119.64v6.21H581.29V92.35h7.77v27.29Z"/></g></g></svg>