<?xml version="1.0" encoding="utf-8"?>
<!-- Generator: Adobe Illustrator 24.1.0, SVG Export Plug-In . SVG Version: 6.00 Build 0)  -->
<svg version="1.1" id="Слой_1" xmlns="http://www.w3.org/2000/svg" xmlns:xlink="http://www.w3.org/1999/xlink" x="0px" y="0px"
	 viewBox="0 0 601.5 126.2" style="enable-background:new 0 0 601.5 126.2;" xml:space="preserve">
<style type="text/css">
	.st0{fill:#FFFFFF;}
</style>
<g id="Слой_2_1_">
	<g id="Layer_1">
		<path class="st0" d="M205.7,1h9.8v60.5h-9.8V1z"/>
		<path class="st0" d="M273.2,1v60.5h-11.6l-30.2-46.7l1,21.4v25.3h-9.8V1h11.5l30.2,46.7l-0.9-21.4V1H273.2z"/>
		<path class="st0" d="M278,31.3C278,13.4,291.2,0,309.1,0c14,0,25.1,8.5,29,21h-10.5c-3.2-7.1-10-11.7-18.6-11.7
			c-12.4,0-21.3,9.3-21.3,22s8.9,21.9,21.3,21.9c8.5,0,15.4-4.6,18.6-11.7h10.5c-3.8,12.5-15,21-29,21C291.2,62.6,278,49.2,278,31.3
			z"/>
		<path class="st0" d="M402.2,31.3c-0.1,17.8-13.6,31.3-31.4,31.3s-31.4-13.5-31.4-31.3S353.1,0,370.9,0S402.1,13.5,402.2,31.3z
			 M349.3,31.3c0,12.6,9.2,21.9,21.5,21.9s21.4-9.3,21.4-21.9s-9.2-22-21.4-22S349.3,18.7,349.3,31.3z"/>
		<path class="st0" d="M456,1v36.4c0,16.9-10.5,25.1-24.5,25.1s-24.5-8.3-24.5-25.2V1h9.9v35.8c0,11.8,6.1,16.4,14.5,16.4
			S446,48.6,446,36.8V1H456z"/>
		<path class="st0" d="M482.1,39h-9.3v22.5h-9.8V1h25c13.1,0,20.6,7.8,20.6,19.2c0,9.9-5.6,16.4-15.2,18.2l18.1,23.1h-12L482.1,39z
			 M472.8,30.4H487c8,0,11.8-4.1,11.8-10s-3.8-9.9-11.8-9.9h-14.2L472.8,30.4z"/>
		<path class="st0" d="M558,44.2c0,13.2-11.8,18.4-22.5,18.4c-16.9,0-24.4-9.3-26-19.8h9.8c1.8,7,6.5,10.6,16.1,10.6
			c8.1,0,12.8-3.2,12.8-8.8s-4.9-6.6-16.2-9.1c-11.8-2.6-20.9-5.9-20.9-17.2c0-12,10.6-18.3,22.2-18.3c15.2,0,22.2,7.9,23.9,17.5
			h-9.8c-1.7-5-5.9-8.3-14-8.3s-12.5,3.6-12.5,8.9c0,4.3,3.5,5.7,13.5,7.9C549.6,29.3,558,32.5,558,44.2z"/>
		<path class="st0" d="M571.8,10.4V26h27.6v9.3h-27.6v16.9h29.7v9.3H562V1h39.5v9.3L571.8,10.4z"/>
		<path class="st0" d="M0,1h4.5v61H0V1z"/>
		<path class="st0" d="M17.3,1h4.5v61h-4.5V1z"/>
		<path class="st0" d="M34.5,1H39v61h-4.5V1z"/>
		<path class="st0" d="M51.8,1h4.5v61h-4.5V1z"/>
		<path class="st0" d="M69,1h4.5v61H69V1z"/>
		<path class="st0" d="M86.3,1h4.5v61h-4.5V1z"/>
		<path class="st0" d="M191.8,1v4.6H98V1H191.8z"/>
		<path class="st0" d="M191.8,15.1v4.5H98v-4.5H191.8z"/>
		<path class="st0" d="M191.8,29.2v4.5H98v-4.5H191.8z"/>
		<path class="st0" d="M191.8,43.2v4.5H98v-4.5H191.8z"/>
		<path class="st0" d="M191.8,57.3v4.5H98v-4.5H191.8z"/>
		<path class="st0" d="M601.5,72.6v4.5H0v-4.5H601.5z"/>
		<path class="st0" d="M7.8,125.8H0V92.3h7.8V125.8z"/>
		<path class="st0" d="M80.3,92.3v33.5h-4c-0.5,0-1-0.1-1.5-0.3c-0.5-0.2-0.9-0.6-1.2-1l-15.8-20c0.1,0.6,0.1,1.2,0.1,1.7
			s0,1.1,0,1.6v18h-6.9V92.3h4.1c0.3,0,0.6,0,0.8,0.1c0.2,0,0.4,0.1,0.6,0.2c0.2,0.1,0.4,0.2,0.5,0.4c0.2,0.2,0.4,0.4,0.6,0.6
			l15.9,20.1c-0.1-0.7-0.1-1.3-0.2-1.9s0-1.2,0-1.7V92.3H80.3z"/>
		<path class="st0" d="M154,109.1c0,2.3-0.4,4.6-1.3,6.7c-0.8,2-2,3.8-3.5,5.3c-1.6,1.5-3.4,2.7-5.5,3.5c-2.3,0.9-4.7,1.3-7.1,1.2
			h-13V92.3h13c2.4,0,4.8,0.4,7.1,1.3c2,0.8,3.9,2,5.5,3.5c1.5,1.5,2.7,3.3,3.5,5.3C153.6,104.5,154,106.8,154,109.1z M146,109.1
			c0-1.5-0.2-3-0.6-4.5c-0.4-1.2-1-2.4-1.9-3.4c-0.8-0.9-1.8-1.7-3-2.1c-1.3-0.5-2.6-0.8-4-0.8h-5.2v21.5h5.2c1.4,0,2.7-0.2,4-0.7
			c1.2-0.5,2.2-1.2,3-2.1c0.8-1,1.5-2.1,1.9-3.4C145.8,112.1,146.1,110.6,146,109.1L146,109.1z"/>
		<path class="st0" d="M209.4,119.7c1,0,1.9-0.2,2.8-0.5c0.8-0.3,1.5-0.8,2.1-1.5c0.6-0.7,1-1.5,1.3-2.3c0.3-1,0.5-2.1,0.4-3.2V92.3
			h7.8v19.8c0,1.9-0.3,3.9-1,5.7c-0.6,1.7-1.6,3.2-2.9,4.4c-1.3,1.3-2.8,2.3-4.5,2.9c-3.9,1.4-8.1,1.4-12,0
			c-1.7-0.6-3.2-1.6-4.5-2.9c-1.3-1.3-2.2-2.8-2.9-4.4c-0.7-1.8-1-3.7-1-5.7V92.3h7.8v19.8c0,1.1,0.1,2.1,0.4,3.2
			c0.3,0.9,0.7,1.7,1.3,2.4c0.6,0.7,1.3,1.2,2.1,1.5C207.5,119.6,208.4,119.7,209.4,119.7z"/>
		<path class="st0" d="M285.1,99.2c-0.2,0.3-0.4,0.6-0.7,0.8c-0.3,0.2-0.6,0.3-1,0.3c-0.4,0-0.8-0.1-1.1-0.3l-1.4-0.8
			c-0.6-0.3-1.2-0.5-1.8-0.8c-0.7-0.2-1.5-0.3-2.2-0.3c-1.2-0.1-2.3,0.2-3.3,0.9c-0.7,0.6-1.1,1.6-1.1,2.5c0,0.6,0.2,1.2,0.6,1.7
			c0.5,0.5,1.1,0.9,1.7,1.2c0.8,0.3,1.6,0.6,2.4,0.9c0.9,0.3,1.8,0.6,2.8,0.9c0.9,0.3,1.9,0.7,2.7,1.2c0.9,0.4,1.7,1,2.4,1.7
			c0.7,0.7,1.3,1.6,1.7,2.5c0.5,1.1,0.7,2.3,0.6,3.6c0,1.5-0.3,3-0.8,4.3c-0.5,1.3-1.3,2.5-2.3,3.5c-1.1,1-2.4,1.8-3.8,2.4
			c-1.6,0.6-3.4,0.9-5.1,0.9c-1.1,0-2.1-0.1-3.2-0.3c-1.1-0.2-2.1-0.5-3.1-0.9c-1-0.4-1.9-0.8-2.9-1.4c-0.8-0.5-1.6-1.1-2.3-1.8
			l2.3-3.6c0.2-0.3,0.4-0.5,0.7-0.7c0.3-0.2,0.6-0.3,1-0.3c0.5,0,1,0.2,1.4,0.4l1.6,1c0.6,0.4,1.3,0.7,2,1c0.9,0.3,1.8,0.5,2.7,0.4
			c1.2,0.1,2.3-0.3,3.3-0.9c0.9-0.8,1.3-1.9,1.2-3c0-0.7-0.2-1.4-0.6-1.9c-0.5-0.5-1-0.9-1.7-1.2c-0.8-0.4-1.6-0.6-2.4-0.9
			c-0.9-0.2-1.8-0.5-2.7-0.8c-0.9-0.3-1.9-0.7-2.7-1.1c-0.9-0.4-1.7-1-2.4-1.7c-0.7-0.8-1.3-1.7-1.7-2.7c-0.5-1.3-0.7-2.6-0.6-3.9
			c0-1.3,0.3-2.5,0.8-3.7c0.5-1.2,1.3-2.3,2.2-3.2c1-1,2.3-1.7,3.6-2.2c1.6-0.6,3.2-0.9,4.9-0.8c1,0,2,0.1,3,0.2
			c0.9,0.2,1.9,0.4,2.8,0.7c0.9,0.3,1.7,0.7,2.5,1.1c0.7,0.4,1.4,0.9,2,1.5L285.1,99.2z"/>
		<path class="st0" d="M353,98.5h-9.4v27.3h-7.8V98.5h-9.4v-6.2H353V98.5z"/>
		<path class="st0" d="M421.1,125.8h-7c-1.1,0.1-2.2-0.5-2.8-1.5l-5.6-9.7c-0.2-0.4-0.5-0.7-0.9-0.9c-0.4-0.2-0.9-0.3-1.4-0.3h-2
			v12.4h-7.8V92.3h10.9c2.1,0,4.2,0.2,6.2,0.8c1.5,0.4,3,1.1,4.2,2.1c1,0.8,1.8,1.9,2.4,3.2c0.5,1.3,0.8,2.6,0.7,4
			c0,1-0.1,2.1-0.4,3.1c-0.6,1.9-1.8,3.7-3.4,4.9c-0.9,0.7-1.8,1.2-2.9,1.6c1.1,0.5,2,1.4,2.6,2.4L421.1,125.8z M404.6,108.1
			c0.9,0,1.8-0.1,2.7-0.4c0.7-0.2,1.3-0.6,1.8-1.1c0.5-0.5,0.8-1,1-1.7c0.2-0.7,0.3-1.4,0.3-2.1c0.1-1.3-0.5-2.6-1.4-3.4
			c-1.3-0.9-2.9-1.4-4.5-1.2h-3.1v9.9L404.6,108.1z"/>
		<path class="st0" d="M468.5,125.8h-7.8V92.3h7.8V125.8z"/>
		<path class="st0" d="M541.8,125.8h-6c-0.6,0-1.2-0.1-1.6-0.5c-0.4-0.3-0.7-0.7-0.9-1.2l-2-5.8h-12.7l-2,5.8
			c-0.2,0.5-0.5,0.9-0.9,1.2c-0.5,0.4-1,0.5-1.6,0.5h-6l13-33.5h8L541.8,125.8z M529.5,113l-3.1-9.2c-0.2-0.6-0.5-1.3-0.7-2.1
			s-0.5-1.6-0.8-2.6c-0.2,0.9-0.5,1.8-0.7,2.6s-0.5,1.5-0.7,2.1l-3.1,9.1H529.5z"/>
		<path class="st0" d="M601.5,119.6v6.2h-20.2V92.3h7.8v27.3H601.5z"/>
	</g>
</g>
</svg>
