<?xml version="1.0" encoding="utf-8"?>
<!-- Generator: Adobe Illustrator 24.1.0, SVG Export Plug-In . SVG Version: 6.00 Build 0)  -->
<svg version="1.1" id="Слой_1" xmlns="http://www.w3.org/2000/svg" xmlns:xlink="http://www.w3.org/1999/xlink" x="0px" y="0px"
	 viewBox="0 0 419.1 105.7" style="enable-background:new 0 0 419.1 105.7;" xml:space="preserve">
<style type="text/css">
	.st0{fill:#008739;}
	.st1{fill:#D2091E;}
	.st2{fill:#FFFFFF;}
</style>
<rect y="60.3" class="st0" width="136.1" height="7.3"/>
<rect x="283" y="60.3" class="st1" width="136.1" height="7.3"/>
<rect x="136.1" y="60.3" class="st2" width="147" height="7.3"/>
<rect class="st2" width="5.4" height="43.9"/>
<rect x="10.9" class="st2" width="5.4" height="43.9"/>
<rect x="21.8" class="st2" width="5.4" height="43.9"/>
<rect x="32.7" class="st2" width="5.4" height="43.9"/>
<rect x="43.5" class="st2" width="5.4" height="43.9"/>
<rect x="54.4" class="st2" width="5.4" height="43.9"/>
<rect x="65.3" class="st2" width="5.4" height="43.9"/>
<rect x="76.2" class="st2" width="5.4" height="43.9"/>
<rect x="87.1" class="st2" width="5.4" height="43.9"/>
<rect x="98" class="st2" width="5.4" height="43.9"/>
<rect x="108.8" class="st2" width="5.4" height="43.9"/>
<rect x="119.7" class="st2" width="5.4" height="43.9"/>
<rect x="130.6" class="st2" width="5.4" height="43.9"/>
<path class="st2" d="M393.3,26c-0.3,3.6-1.1,7.2-2.3,10.6h-79.7c-3.3-9.5-3.3-19.8,0-29.2h106.4c-0.5-2.5-1.2-5-2-7.4h-129
	c-0.8,2.4-1.5,4.9-2,7.4c-2.1,9.6-2.1,19.6,0,29.2c0.5,2.5,1.2,4.9,2,7.3h129c0.8-2.4,1.5-4.8,2-7.3c0.7-3.5,1.2-7,1.4-10.6H393.3z"
	/>
<path class="st2" d="M273.9,0H141.5v7.4h107.2c3.4,9.4,3.4,19.8,0,29.2H141.5v7.3h132.4c0.8-2.4,1.5-4.8,2.1-7.3
	c2.1-9.6,2.1-19.6,0-29.2C275.5,4.9,274.8,2.4,273.9,0z"/>
<polygon class="st2" points="39.1,87.8 39.1,105.7 34,105.7 34,87.8 24,87.8 24,83.9 49.2,83.9 49.2,87.8 "/>
<path class="st2" d="M79,83.9h-4.9l-12.4,21.8h5.1l2.6-4.7h13.8l2.6,4.8h5.7L79,83.9z M71.5,97l4.9-8.9l4.7,8.9H71.5z"/>
<polygon class="st2" points="110.1,105.7 110.1,83.9 115.2,83.9 115.2,101.6 131.6,101.6 131.6,105.7 "/>
<polygon class="st2" points="206.2,105.7 206.2,83.9 228.6,83.9 228.6,87.6 211.3,87.6 211.3,92.5 221.4,92.5 221.4,96.2 
	211.3,96.2 211.3,101.6 228.8,101.6 228.8,105.7 "/>
<path class="st2" d="M279.3,93.5c-0.8-0.7-2.2-1.1-4.3-1.1h-13.7v-4.7h18.8c0-1-0.4-2.1-1.1-2.8c-0.8-0.7-2.2-1-4.2-1h-12.4
	c-2.1,0-3.5,0.3-4.3,1.1s-1.1,2.1-1.1,4.1v2.4c0,2,0.4,3.4,1.1,4.1s2.2,1,4.3,1H276v5h-19.9c0,1.1,0.4,2.2,1.1,3
	c0.8,0.7,2.2,1.1,4.3,1.1H275c2.1,0,3.5-0.3,4.3-1.1s1.1-2,1.1-4.1v-3C280.4,95.5,280.1,94.2,279.3,93.5z"/>
<rect x="307.8" y="83.9" class="st2" width="5.1" height="21.8"/>
<rect y="83.9" class="st2" width="5.1" height="21.8"/>
<path class="st2" d="M393.4,105.7V83.9h3.5l15.4,12.9c0.9,0.7,1.7,1.5,2.5,2.4c-0.1-2-0.2-3.3-0.2-3.8V83.9h4.6v21.8h-3.5l-16-13.5
	c-0.7-0.5-1.3-1.1-1.8-1.8c0.1,1.2,0.2,2.3,0.2,3.5v11.8L393.4,105.7z"/>
<path class="st2" d="M177.6,87.9c-0.5-1.4-1.1-2.7-1.9-4h-23.4v21.8h23.4c0.8-1.3,1.4-2.6,1.9-4C179.3,97.3,179.3,92.4,177.6,87.9
	L177.6,87.9z M172.6,101.6h-15.2V87.8h15.1l0.1,0.1c0.8,2.2,1.2,4.5,1.2,6.9C173.8,97.1,173.4,99.5,172.6,101.6L172.6,101.6z"/>
<path class="st2" d="M364.9,84.9c-0.8-0.7-2.2-1.1-4.2-1.1h-15.1c-2.1,0-3.5,0.3-4.3,1.1s-1.1,2.1-1.1,4.1v11.5c0,2,0.4,3.4,1.1,4.1
	s2.2,1.1,4.3,1.1h15.1c2.1,0,3.5-0.3,4.3-1.1s1.1-2,1.1-4.1v-5.8h-5v6.8h-15.9V87.8H366C366,86.7,365.6,85.7,364.9,84.9z"/>
</svg>
