<svg xmlns="http://www.w3.org/2000/svg" viewBox="0 0 419.1 105.72"><defs><style>.cls-1{fill:#008739;}.cls-2{fill:#d2091e;}.cls-3{fill:#fff;}.cls-4{fill:#8d9091;}</style></defs><g id="Слой_2" data-name="Слой 2"><g id="Layer_1" data-name="Layer 1"><rect class="cls-1" y="60.26" width="136.07" height="7.29"/><rect class="cls-2" x="283.04" y="60.26" width="136.07" height="7.29"/><rect class="cls-3" x="136.07" y="60.26" width="146.97" height="7.29"/><rect class="cls-4" width="5.44" height="43.94"/><rect class="cls-4" x="10.89" width="5.44" height="43.94"/><rect class="cls-4" x="21.77" width="5.44" height="43.94"/><rect class="cls-4" x="32.66" width="5.44" height="43.94"/><rect class="cls-4" x="43.54" width="5.44" height="43.94"/><rect class="cls-4" x="54.43" width="5.44" height="43.94"/><rect class="cls-4" x="65.31" width="5.44" height="43.94"/><rect class="cls-4" x="76.2" width="5.44" height="43.94"/><rect class="cls-4" x="87.08" width="5.44" height="43.94"/><rect class="cls-4" x="97.97" width="5.44" height="43.94"/><rect class="cls-4" x="108.85" width="5.44" height="43.94"/><rect class="cls-4" x="119.74" width="5.44" height="43.94"/><rect class="cls-4" x="130.62" width="5.44" height="43.94"/><path class="cls-4" d="M393.28,26A43.77,43.77,0,0,1,391,36.62H311.3a43.78,43.78,0,0,1,0-29.22H417.67a73.18,73.18,0,0,0-2-7.4h-129a70.64,70.64,0,0,0-2,7.4,69.63,69.63,0,0,0,0,29.22,66.44,66.44,0,0,0,2,7.32h129a66.48,66.48,0,0,0,2-7.32A71.46,71.46,0,0,0,419.1,26Z"/><path class="cls-4" d="M273.92,0H141.52V7.4H248.77a43.13,43.13,0,0,1,0,29.22H141.52v7.32H273.94A66.59,66.59,0,0,0,276,36.62,68.34,68.34,0,0,0,276,7.4,66.19,66.19,0,0,0,273.92,0Z"/><polygon class="cls-4" points="39.08 87.78 39.08 105.72 33.99 105.72 33.99 87.78 23.97 87.78 23.97 83.88 49.15 83.88 49.15 87.78 39.08 87.78"/><path class="cls-4" d="M79,83.88H74.07L61.7,105.72h5.08L69.33,101H83.17l2.62,4.77h5.72ZM71.48,97l4.87-8.9,4.7,8.9Z"/><polygon class="cls-4" points="110.14 105.72 110.14 83.88 115.21 83.88 115.21 101.64 131.6 101.64 131.6 105.72 110.14 105.72"/><polygon class="cls-4" points="206.2 105.72 206.2 83.88 228.55 83.88 228.55 87.61 211.28 87.61 211.28 92.5 221.35 92.5 221.35 96.21 211.28 96.21 211.28 101.64 228.76 101.64 228.76 105.72 206.2 105.72"/><path class="cls-4" d="M279.27,93.47c-.77-.71-2.21-1.06-4.28-1.06H261.32V87.7h18.77a3.92,3.92,0,0,0-1.15-2.79c-.79-.68-2.21-1-4.2-1h-12.4c-2.09,0-3.51.35-4.29,1.06s-1.14,2.07-1.14,4.11v2.43c0,2,.39,3.4,1.14,4.11s2.2,1,4.29,1H276v5H256.09a4.39,4.39,0,0,0,1.1,3c.78.71,2.21,1.06,4.29,1.06H275c2.09,0,3.52-.35,4.29-1.06s1.15-2,1.15-4.09v-3C280.44,95.54,280.06,94.18,279.27,93.47Z"/><rect class="cls-4" x="307.77" y="83.88" width="5.08" height="21.85"/><rect class="cls-4" y="83.88" width="5.08" height="21.85"/><path class="cls-4" d="M393.41,105.72V83.88h3.46l15.38,12.88a22.9,22.9,0,0,1,2.49,2.37c-.14-2-.21-3.27-.21-3.76V83.88h4.57v21.84h-3.47l-16-13.49a17.28,17.28,0,0,1-1.84-1.77,31.79,31.79,0,0,1,.23,3.47v11.79Z"/><path class="cls-4" d="M177.65,87.92a23.57,23.57,0,0,0-1.91-4H152.35v21.84h23.39a22.86,22.86,0,0,0,1.91-4,20,20,0,0,0,0-13.8Zm-5.05,13.72H157.41V87.78h15.12l.05.14a20.46,20.46,0,0,1,1.23,6.89A20.14,20.14,0,0,1,172.6,101.64Z"/><path class="cls-4" d="M364.89,84.94c-.79-.71-2.21-1.06-4.22-1.06H345.6c-2.09,0-3.51.35-4.28,1.06s-1.15,2.07-1.15,4.11v11.53c0,2,.37,3.4,1.15,4.08s2.19,1.06,4.28,1.06h15.07c2.07,0,3.49-.35,4.26-1.06s1.15-2,1.15-4.08V94.8h-4.95v6.84H345.25V87.79H366A4.06,4.06,0,0,0,364.89,84.94Z"/></g></g></svg>