<svg width="100" height="30" viewBox="0 0 100 30" fill="none" xmlns="http://www.w3.org/2000/svg">
<path d="M37.0292 21.8118C38.1161 21.8118 42.464 21.8118 43.9132 17.3915H39.4205C39.2031 18.406 38.2611 18.9857 36.9567 18.9857C35.0727 18.9857 34.1306 17.5364 34.2031 15.8697H43.9857C44.2031 13.0437 43.1161 7.97119 37.0292 7.97119C32.6089 7.97119 29.9277 10.7973 29.9277 14.8552C29.9277 19.348 33.0437 21.8118 37.0292 21.8118ZM37.0292 10.7973C38.6959 10.7973 39.5654 12.1016 39.6379 13.406H34.4205C34.493 12.0292 35.435 10.7973 37.0292 10.7973Z" fill="#56593D"/>
<path d="M37.0292 21.8118C38.1161 21.8118 42.464 21.8118 43.9132 17.3915H39.4205C39.2031 18.406 38.2611 18.9857 36.9567 18.9857C35.0727 18.9857 34.1306 17.5364 34.2031 15.8697H43.9857C44.2031 13.0437 43.1161 7.97119 37.0292 7.97119C32.6089 7.97119 29.9277 10.7973 29.9277 14.8552C29.9277 19.348 33.0437 21.8118 37.0292 21.8118ZM37.0292 10.7973C38.6959 10.7973 39.5654 12.1016 39.6379 13.406H34.4205C34.493 12.0292 35.435 10.7973 37.0292 10.7973Z" fill="#06214D"/>
<path d="M37.0292 21.8118C38.1161 21.8118 42.464 21.8118 43.9132 17.3915H39.4205C39.2031 18.406 38.2611 18.9857 36.9567 18.9857C35.0727 18.9857 34.1306 17.5364 34.2031 15.8697H43.9857C44.2031 13.0437 43.1161 7.97119 37.0292 7.97119C32.6089 7.97119 29.9277 10.7973 29.9277 14.8552C29.9277 19.348 33.0437 21.8118 37.0292 21.8118ZM37.0292 10.7973C38.6959 10.7973 39.5654 12.1016 39.6379 13.406H34.4205C34.493 12.0292 35.435 10.7973 37.0292 10.7973Z" fill="#383E48"/>
<path d="M67.3913 8.47803H62.7536V18.1157H59.0579V8.47803H54.4202V18.1157H50.7246V8.47803H46.0869V21.3041H67.3913V8.47803Z" fill="#56593D"/>
<path d="M67.3913 8.47803H62.7536V18.1157H59.0579V8.47803H54.4202V18.1157H50.7246V8.47803H46.0869V21.3041H67.3913V8.47803Z" fill="#06214D"/>
<path d="M67.3913 8.47803H62.7536V18.1157H59.0579V8.47803H54.4202V18.1157H50.7246V8.47803H46.0869V21.3041H67.3913V8.47803Z" fill="#383E48"/>
<path d="M84.2752 8.47803H78.623L74.7099 13.6954V8.47803H70.0723V21.3041H74.7099V15.6519L78.9128 21.3041H84.7824L78.9853 14.4925L84.2752 8.47803Z" fill="#56593D"/>
<path d="M84.2752 8.47803H78.623L74.7099 13.6954V8.47803H70.0723V21.3041H74.7099V15.6519L78.9128 21.3041H84.7824L78.9853 14.4925L84.2752 8.47803Z" fill="#06214D"/>
<path d="M84.2752 8.47803H78.623L74.7099 13.6954V8.47803H70.0723V21.3041H74.7099V15.6519L78.9128 21.3041H84.7824L78.9853 14.4925L84.2752 8.47803Z" fill="#383E48"/>
<path d="M95.2174 8.47824V10.0724C94.058 8.62317 92.8261 8.04346 91.0145 8.04346C86.7391 8.04346 85 11.6666 85 14.9275C85 19.2753 87.6812 21.8116 91.0145 21.8116C92.8985 21.8116 94.2754 21.0145 95.2174 19.7826V21.3043H99.7101V8.47824H95.2174ZM92.6087 17.971C90.7246 17.971 89.8551 16.4493 89.8551 14.8551C89.8551 13.3333 90.6522 11.8116 92.6087 11.8116C94.2754 11.8116 95.4348 13.0435 95.4348 14.8551C95.3623 16.7391 94.2754 17.971 92.6087 17.971Z" fill="#56593D"/>
<path d="M95.2174 8.47824V10.0724C94.058 8.62317 92.8261 8.04346 91.0145 8.04346C86.7391 8.04346 85 11.6666 85 14.9275C85 19.2753 87.6812 21.8116 91.0145 21.8116C92.8985 21.8116 94.2754 21.0145 95.2174 19.7826V21.3043H99.7101V8.47824H95.2174ZM92.6087 17.971C90.7246 17.971 89.8551 16.4493 89.8551 14.8551C89.8551 13.3333 90.6522 11.8116 92.6087 11.8116C94.2754 11.8116 95.4348 13.0435 95.4348 14.8551C95.3623 16.7391 94.2754 17.971 92.6087 17.971Z" fill="#06214D"/>
<path d="M95.2174 8.47824V10.0724C94.058 8.62317 92.8261 8.04346 91.0145 8.04346C86.7391 8.04346 85 11.6666 85 14.9275C85 19.2753 87.6812 21.8116 91.0145 21.8116C92.8985 21.8116 94.2754 21.0145 95.2174 19.7826V21.3043H99.7101V8.47824H95.2174ZM92.6087 17.971C90.7246 17.971 89.8551 16.4493 89.8551 14.8551C89.8551 13.3333 90.6522 11.8116 92.6087 11.8116C94.2754 11.8116 95.4348 13.0435 95.4348 14.8551C95.3623 16.7391 94.2754 17.971 92.6087 17.971Z" fill="#383E48"/>
<path d="M19.7101 14.8551H17.1739V22.4638H11.9565V0C5.14493 1.23188 0 7.10145 0 14.2029C0 22.1739 6.44927 28.6232 14.4203 28.6232C22.3913 28.6232 28.8406 22.1739 28.8406 14.2029C28.8406 12.3913 28.4783 10.5797 27.8261 8.98551C27.2464 11.8116 25.0725 14.8551 19.7101 14.8551Z" fill="#56593D"/>
<path d="M19.7101 14.8551H17.1739V22.4638H11.9565V0C5.14493 1.23188 0 7.10145 0 14.2029C0 22.1739 6.44927 28.6232 14.4203 28.6232C22.3913 28.6232 28.8406 22.1739 28.8406 14.2029C28.8406 12.3913 28.4783 10.5797 27.8261 8.98551C27.2464 11.8116 25.0725 14.8551 19.7101 14.8551Z" fill="#06214D"/>
<path d="M19.7101 14.8551H17.1739V22.4638H11.9565V0C5.14493 1.23188 0 7.10145 0 14.2029C0 22.1739 6.44927 28.6232 14.4203 28.6232C22.3913 28.6232 28.8406 22.1739 28.8406 14.2029C28.8406 12.3913 28.4783 10.5797 27.8261 8.98551C27.2464 11.8116 25.0725 14.8551 19.7101 14.8551Z" fill="#383E48"/>
<path d="M22.319 7.10137C22.319 5.94195 21.9567 4.49268 19.1306 4.49268H17.2466V9.78253H19.1306C22.0292 9.78253 22.319 8.11586 22.319 7.10137Z" fill="#56593D"/>
<path d="M22.319 7.10137C22.319 5.94195 21.9567 4.49268 19.1306 4.49268H17.2466V9.78253H19.1306C22.0292 9.78253 22.319 8.11586 22.319 7.10137Z" fill="#06214D"/>
<path d="M22.319 7.10137C22.319 5.94195 21.9567 4.49268 19.1306 4.49268H17.2466V9.78253H19.1306C22.0292 9.78253 22.319 8.11586 22.319 7.10137Z" fill="#383E48"/>
<g opacity="0.5">
<path d="M33.1882 27.5363C33.1157 27.5363 33.1157 27.5363 33.0433 27.6087C32.9708 27.6812 32.8984 27.6812 32.8259 27.7537C32.7534 27.8261 32.681 27.8261 32.536 27.8986C32.3911 27.971 32.2462 27.971 32.1013 27.971C31.8839 27.971 31.7389 27.971 31.594 27.8986C31.4491 27.8261 31.3042 27.6812 31.1592 27.5363C31.0143 27.3913 30.9418 27.2464 30.9418 27.029C30.8694 26.8116 30.8694 26.5942 30.8694 26.3768C30.8694 26.1594 30.8694 25.9421 30.9418 25.7247C31.0143 25.5073 31.0868 25.3623 31.1592 25.2174C31.2317 25.0725 31.3766 25 31.5215 24.9276C31.6665 24.8551 31.8839 24.7826 32.1013 24.7826C32.2462 24.7826 32.3911 24.7826 32.4636 24.8551C32.536 24.9276 32.681 24.9276 32.7534 25C32.8259 25.0725 32.8984 25.0725 32.9708 25.145C33.0433 25.2174 33.0433 25.2174 33.1157 25.2174C33.1882 25.2174 33.1882 25.2174 33.1882 25.2174L33.2607 25.145L33.4781 24.8551C33.3331 24.7102 33.1157 24.5652 32.8984 24.4203C32.681 24.3479 32.3911 24.2754 32.1013 24.2754C31.8114 24.2754 31.5215 24.3479 31.2317 24.4203C31.0143 24.4928 30.7969 24.7102 30.5795 24.8551C30.4346 25.0725 30.2897 25.2899 30.2172 25.5797C30.1447 25.8696 30.0723 26.1594 30.0723 26.4493C30.0723 26.8116 30.1447 27.1015 30.2172 27.3913C30.2897 27.6812 30.4346 27.8986 30.5795 28.0435C30.7244 28.2609 30.9418 28.3334 31.1592 28.4783C31.3766 28.5508 31.6665 28.6232 31.8839 28.6232C32.0288 28.6232 32.1737 28.6232 32.3186 28.5508C32.4636 28.5508 32.6085 28.4783 32.7534 28.4058C32.8984 28.3334 33.0433 28.2609 33.1157 28.1884C33.2607 28.116 33.3331 28.0435 33.4056 27.8986L33.3331 27.6087C33.2607 27.5363 33.1882 27.5363 33.1882 27.5363Z" fill="#56593D"/>
<path d="M33.1882 27.5363C33.1157 27.5363 33.1157 27.5363 33.0433 27.6087C32.9708 27.6812 32.8984 27.6812 32.8259 27.7537C32.7534 27.8261 32.681 27.8261 32.536 27.8986C32.3911 27.971 32.2462 27.971 32.1013 27.971C31.8839 27.971 31.7389 27.971 31.594 27.8986C31.4491 27.8261 31.3042 27.6812 31.1592 27.5363C31.0143 27.3913 30.9418 27.2464 30.9418 27.029C30.8694 26.8116 30.8694 26.5942 30.8694 26.3768C30.8694 26.1594 30.8694 25.9421 30.9418 25.7247C31.0143 25.5073 31.0868 25.3623 31.1592 25.2174C31.2317 25.0725 31.3766 25 31.5215 24.9276C31.6665 24.8551 31.8839 24.7826 32.1013 24.7826C32.2462 24.7826 32.3911 24.7826 32.4636 24.8551C32.536 24.9276 32.681 24.9276 32.7534 25C32.8259 25.0725 32.8984 25.0725 32.9708 25.145C33.0433 25.2174 33.0433 25.2174 33.1157 25.2174C33.1882 25.2174 33.1882 25.2174 33.1882 25.2174L33.2607 25.145L33.4781 24.8551C33.3331 24.7102 33.1157 24.5652 32.8984 24.4203C32.681 24.3479 32.3911 24.2754 32.1013 24.2754C31.8114 24.2754 31.5215 24.3479 31.2317 24.4203C31.0143 24.4928 30.7969 24.7102 30.5795 24.8551C30.4346 25.0725 30.2897 25.2899 30.2172 25.5797C30.1447 25.8696 30.0723 26.1594 30.0723 26.4493C30.0723 26.8116 30.1447 27.1015 30.2172 27.3913C30.2897 27.6812 30.4346 27.8986 30.5795 28.0435C30.7244 28.2609 30.9418 28.3334 31.1592 28.4783C31.3766 28.5508 31.6665 28.6232 31.8839 28.6232C32.0288 28.6232 32.1737 28.6232 32.3186 28.5508C32.4636 28.5508 32.6085 28.4783 32.7534 28.4058C32.8984 28.3334 33.0433 28.2609 33.1157 28.1884C33.2607 28.116 33.3331 28.0435 33.4056 27.8986L33.3331 27.6087C33.2607 27.5363 33.1882 27.5363 33.1882 27.5363Z" fill="#06214D"/>
<path d="M33.1882 27.5363C33.1157 27.5363 33.1157 27.5363 33.0433 27.6087C32.9708 27.6812 32.8984 27.6812 32.8259 27.7537C32.7534 27.8261 32.681 27.8261 32.536 27.8986C32.3911 27.971 32.2462 27.971 32.1013 27.971C31.8839 27.971 31.7389 27.971 31.594 27.8986C31.4491 27.8261 31.3042 27.6812 31.1592 27.5363C31.0143 27.3913 30.9418 27.2464 30.9418 27.029C30.8694 26.8116 30.8694 26.5942 30.8694 26.3768C30.8694 26.1594 30.8694 25.9421 30.9418 25.7247C31.0143 25.5073 31.0868 25.3623 31.1592 25.2174C31.2317 25.0725 31.3766 25 31.5215 24.9276C31.6665 24.8551 31.8839 24.7826 32.1013 24.7826C32.2462 24.7826 32.3911 24.7826 32.4636 24.8551C32.536 24.9276 32.681 24.9276 32.7534 25C32.8259 25.0725 32.8984 25.0725 32.9708 25.145C33.0433 25.2174 33.0433 25.2174 33.1157 25.2174C33.1882 25.2174 33.1882 25.2174 33.1882 25.2174L33.2607 25.145L33.4781 24.8551C33.3331 24.7102 33.1157 24.5652 32.8984 24.4203C32.681 24.3479 32.3911 24.2754 32.1013 24.2754C31.8114 24.2754 31.5215 24.3479 31.2317 24.4203C31.0143 24.4928 30.7969 24.7102 30.5795 24.8551C30.4346 25.0725 30.2897 25.2899 30.2172 25.5797C30.1447 25.8696 30.0723 26.1594 30.0723 26.4493C30.0723 26.8116 30.1447 27.1015 30.2172 27.3913C30.2897 27.6812 30.4346 27.8986 30.5795 28.0435C30.7244 28.2609 30.9418 28.3334 31.1592 28.4783C31.3766 28.5508 31.6665 28.6232 31.8839 28.6232C32.0288 28.6232 32.1737 28.6232 32.3186 28.5508C32.4636 28.5508 32.6085 28.4783 32.7534 28.4058C32.8984 28.3334 33.0433 28.2609 33.1157 28.1884C33.2607 28.116 33.3331 28.0435 33.4056 27.8986L33.3331 27.6087C33.2607 27.5363 33.1882 27.5363 33.1882 27.5363Z" fill="#383E48"/>
</g>
<g opacity="0.5">
<path d="M38.0434 24.7828C37.8985 24.5654 37.6811 24.4205 37.3912 24.3481C37.1014 24.2756 36.884 24.2031 36.5941 24.2031C36.3043 24.2031 36.0144 24.2756 35.7246 24.3481C35.4347 24.4205 35.2898 24.5654 35.0724 24.7828C34.855 25.0002 34.7825 25.2176 34.6376 25.435C34.5651 25.7249 34.4927 26.0147 34.4927 26.3046C34.4927 26.6669 34.5651 26.9567 34.6376 27.1741C34.7101 27.464 34.855 27.6814 35.0724 27.8263C35.2898 27.9712 35.4347 28.1886 35.7246 28.2611C35.942 28.3336 36.2318 28.406 36.5941 28.406C36.884 28.406 37.1738 28.3336 37.3912 28.2611C37.6086 28.1886 37.826 28.0437 38.0434 27.8263C38.2608 27.6089 38.3333 27.3915 38.4782 27.1741C38.5506 26.8843 38.6231 26.5944 38.6231 26.3046C38.6231 25.9423 38.5506 25.6524 38.4782 25.435C38.3333 25.2176 38.1883 25.0002 38.0434 24.7828ZM37.4637 27.5365C37.2463 27.8263 36.9564 27.9712 36.5217 27.9712C36.0869 27.9712 35.797 27.8263 35.5796 27.5365C35.3622 27.2466 35.2898 26.8843 35.2898 26.377C35.2898 26.1596 35.2898 25.8698 35.3622 25.7249C35.4347 25.5075 35.5072 25.3625 35.5796 25.2176C35.6521 25.0727 35.797 25.0002 35.9419 24.9278C36.0869 24.8553 36.3043 24.8553 36.5217 24.8553C36.9564 24.8553 37.2463 25.0002 37.4637 25.2901C37.6811 25.5799 37.7535 25.9423 37.7535 26.4495C37.7535 26.8843 37.6811 27.2466 37.4637 27.5365Z" fill="#56593D"/>
<path d="M38.0434 24.7828C37.8985 24.5654 37.6811 24.4205 37.3912 24.3481C37.1014 24.2756 36.884 24.2031 36.5941 24.2031C36.3043 24.2031 36.0144 24.2756 35.7246 24.3481C35.4347 24.4205 35.2898 24.5654 35.0724 24.7828C34.855 25.0002 34.7825 25.2176 34.6376 25.435C34.5651 25.7249 34.4927 26.0147 34.4927 26.3046C34.4927 26.6669 34.5651 26.9567 34.6376 27.1741C34.7101 27.464 34.855 27.6814 35.0724 27.8263C35.2898 27.9712 35.4347 28.1886 35.7246 28.2611C35.942 28.3336 36.2318 28.406 36.5941 28.406C36.884 28.406 37.1738 28.3336 37.3912 28.2611C37.6086 28.1886 37.826 28.0437 38.0434 27.8263C38.2608 27.6089 38.3333 27.3915 38.4782 27.1741C38.5506 26.8843 38.6231 26.5944 38.6231 26.3046C38.6231 25.9423 38.5506 25.6524 38.4782 25.435C38.3333 25.2176 38.1883 25.0002 38.0434 24.7828ZM37.4637 27.5365C37.2463 27.8263 36.9564 27.9712 36.5217 27.9712C36.0869 27.9712 35.797 27.8263 35.5796 27.5365C35.3622 27.2466 35.2898 26.8843 35.2898 26.377C35.2898 26.1596 35.2898 25.8698 35.3622 25.7249C35.4347 25.5075 35.5072 25.3625 35.5796 25.2176C35.6521 25.0727 35.797 25.0002 35.9419 24.9278C36.0869 24.8553 36.3043 24.8553 36.5217 24.8553C36.9564 24.8553 37.2463 25.0002 37.4637 25.2901C37.6811 25.5799 37.7535 25.9423 37.7535 26.4495C37.7535 26.8843 37.6811 27.2466 37.4637 27.5365Z" fill="#06214D"/>
<path d="M38.0434 24.7828C37.8985 24.5654 37.6811 24.4205 37.3912 24.3481C37.1014 24.2756 36.884 24.2031 36.5941 24.2031C36.3043 24.2031 36.0144 24.2756 35.7246 24.3481C35.4347 24.4205 35.2898 24.5654 35.0724 24.7828C34.855 25.0002 34.7825 25.2176 34.6376 25.435C34.5651 25.7249 34.4927 26.0147 34.4927 26.3046C34.4927 26.6669 34.5651 26.9567 34.6376 27.1741C34.7101 27.464 34.855 27.6814 35.0724 27.8263C35.2898 27.9712 35.4347 28.1886 35.7246 28.2611C35.942 28.3336 36.2318 28.406 36.5941 28.406C36.884 28.406 37.1738 28.3336 37.3912 28.2611C37.6086 28.1886 37.826 28.0437 38.0434 27.8263C38.2608 27.6089 38.3333 27.3915 38.4782 27.1741C38.5506 26.8843 38.6231 26.5944 38.6231 26.3046C38.6231 25.9423 38.5506 25.6524 38.4782 25.435C38.3333 25.2176 38.1883 25.0002 38.0434 24.7828ZM37.4637 27.5365C37.2463 27.8263 36.9564 27.9712 36.5217 27.9712C36.0869 27.9712 35.797 27.8263 35.5796 27.5365C35.3622 27.2466 35.2898 26.8843 35.2898 26.377C35.2898 26.1596 35.2898 25.8698 35.3622 25.7249C35.4347 25.5075 35.5072 25.3625 35.5796 25.2176C35.6521 25.0727 35.797 25.0002 35.9419 24.9278C36.0869 24.8553 36.3043 24.8553 36.5217 24.8553C36.9564 24.8553 37.2463 25.0002 37.4637 25.2901C37.6811 25.5799 37.7535 25.9423 37.7535 26.4495C37.7535 26.8843 37.6811 27.2466 37.4637 27.5365Z" fill="#383E48"/>
</g>
<g opacity="0.5">
<path d="M41.8115 26.2321C41.9564 26.1596 42.1014 26.1596 42.1738 26.0872C42.2463 26.0147 42.3188 25.9423 42.3912 25.8698C42.4637 25.7973 42.4637 25.7249 42.5362 25.5799C42.5362 25.5075 42.6086 25.435 42.6086 25.2901C42.6086 25.1452 42.6086 25.0002 42.5362 24.8553C42.4637 24.7104 42.3912 24.6379 42.2463 24.493C42.1014 24.4205 41.9564 24.2756 41.7391 24.2756C41.5217 24.2031 41.3043 24.2031 41.0869 24.2031C40.797 24.2031 40.5072 24.2756 40.2898 24.3481C40.0724 24.4205 39.855 24.5654 39.7101 24.7104L39.855 25.0002C39.855 25.0727 39.9275 25.0727 39.9275 25.0727H39.9999C39.9999 25.0727 40.0724 25.0727 40.1449 25.0002C40.2173 24.9278 40.2898 24.9278 40.3622 24.9278C40.4347 24.8553 40.5072 24.8553 40.6521 24.8553C40.797 24.8553 40.942 24.7828 41.0869 24.7828C41.2318 24.7828 41.3767 24.7828 41.5217 24.8553C41.6666 24.8553 41.7391 24.9278 41.8115 25.0002C41.884 25.0727 41.9564 25.1452 41.9564 25.2176C41.9564 25.2901 42.0289 25.3625 42.0289 25.435C42.0289 25.5075 42.0289 25.5799 41.9564 25.7249C41.884 25.8698 41.8115 25.8698 41.7391 25.9423C41.6666 26.0147 41.5217 26.0147 41.4492 26.0872C41.3043 26.0872 41.1593 26.1596 41.0144 26.1596H40.5072V26.6669H41.0144C41.3767 26.6669 41.5941 26.7394 41.8115 26.8843C41.9564 27.0292 42.1014 27.1741 42.1014 27.3915C42.1014 27.464 42.1014 27.6089 42.0289 27.6814C41.9564 27.7538 41.9564 27.8263 41.8115 27.8988C41.7391 27.9712 41.5941 28.0437 41.5217 28.0437C41.3767 28.1162 41.2318 28.1162 41.0869 28.1162C40.942 28.1162 40.797 28.1162 40.6521 28.0437C40.5072 27.9712 40.4347 27.9712 40.3622 27.8988C40.2898 27.8263 40.2173 27.8263 40.1449 27.7538C39.9275 27.5365 39.9275 27.5365 39.855 27.5365C39.7825 27.5365 39.7825 27.5365 39.7101 27.6089L39.4927 27.8988C39.5651 28.0437 39.7101 28.1162 39.7825 28.1886C39.9275 28.2611 39.9999 28.3336 40.1449 28.406C40.2898 28.4785 40.4347 28.4785 40.5796 28.551C40.7246 28.551 40.8695 28.6234 41.0144 28.6234C41.2318 28.6234 41.4492 28.6234 41.6666 28.551C41.884 28.4785 42.0289 28.406 42.1738 28.3336C42.3188 28.1886 42.4637 28.1162 42.5362 27.8988C42.6086 27.7538 42.6811 27.5365 42.6811 27.3915C42.6811 27.1017 42.6086 26.8843 42.4637 26.7394C42.3188 26.5944 42.0289 26.3046 41.8115 26.2321Z" fill="#56593D"/>
<path d="M41.8115 26.2321C41.9564 26.1596 42.1014 26.1596 42.1738 26.0872C42.2463 26.0147 42.3188 25.9423 42.3912 25.8698C42.4637 25.7973 42.4637 25.7249 42.5362 25.5799C42.5362 25.5075 42.6086 25.435 42.6086 25.2901C42.6086 25.1452 42.6086 25.0002 42.5362 24.8553C42.4637 24.7104 42.3912 24.6379 42.2463 24.493C42.1014 24.4205 41.9564 24.2756 41.7391 24.2756C41.5217 24.2031 41.3043 24.2031 41.0869 24.2031C40.797 24.2031 40.5072 24.2756 40.2898 24.3481C40.0724 24.4205 39.855 24.5654 39.7101 24.7104L39.855 25.0002C39.855 25.0727 39.9275 25.0727 39.9275 25.0727H39.9999C39.9999 25.0727 40.0724 25.0727 40.1449 25.0002C40.2173 24.9278 40.2898 24.9278 40.3622 24.9278C40.4347 24.8553 40.5072 24.8553 40.6521 24.8553C40.797 24.8553 40.942 24.7828 41.0869 24.7828C41.2318 24.7828 41.3767 24.7828 41.5217 24.8553C41.6666 24.8553 41.7391 24.9278 41.8115 25.0002C41.884 25.0727 41.9564 25.1452 41.9564 25.2176C41.9564 25.2901 42.0289 25.3625 42.0289 25.435C42.0289 25.5075 42.0289 25.5799 41.9564 25.7249C41.884 25.8698 41.8115 25.8698 41.7391 25.9423C41.6666 26.0147 41.5217 26.0147 41.4492 26.0872C41.3043 26.0872 41.1593 26.1596 41.0144 26.1596H40.5072V26.6669H41.0144C41.3767 26.6669 41.5941 26.7394 41.8115 26.8843C41.9564 27.0292 42.1014 27.1741 42.1014 27.3915C42.1014 27.464 42.1014 27.6089 42.0289 27.6814C41.9564 27.7538 41.9564 27.8263 41.8115 27.8988C41.7391 27.9712 41.5941 28.0437 41.5217 28.0437C41.3767 28.1162 41.2318 28.1162 41.0869 28.1162C40.942 28.1162 40.797 28.1162 40.6521 28.0437C40.5072 27.9712 40.4347 27.9712 40.3622 27.8988C40.2898 27.8263 40.2173 27.8263 40.1449 27.7538C39.9275 27.5365 39.9275 27.5365 39.855 27.5365C39.7825 27.5365 39.7825 27.5365 39.7101 27.6089L39.4927 27.8988C39.5651 28.0437 39.7101 28.1162 39.7825 28.1886C39.9275 28.2611 39.9999 28.3336 40.1449 28.406C40.2898 28.4785 40.4347 28.4785 40.5796 28.551C40.7246 28.551 40.8695 28.6234 41.0144 28.6234C41.2318 28.6234 41.4492 28.6234 41.6666 28.551C41.884 28.4785 42.0289 28.406 42.1738 28.3336C42.3188 28.1886 42.4637 28.1162 42.5362 27.8988C42.6086 27.7538 42.6811 27.5365 42.6811 27.3915C42.6811 27.1017 42.6086 26.8843 42.4637 26.7394C42.3188 26.5944 42.0289 26.3046 41.8115 26.2321Z" fill="#06214D"/>
<path d="M41.8115 26.2321C41.9564 26.1596 42.1014 26.1596 42.1738 26.0872C42.2463 26.0147 42.3188 25.9423 42.3912 25.8698C42.4637 25.7973 42.4637 25.7249 42.5362 25.5799C42.5362 25.5075 42.6086 25.435 42.6086 25.2901C42.6086 25.1452 42.6086 25.0002 42.5362 24.8553C42.4637 24.7104 42.3912 24.6379 42.2463 24.493C42.1014 24.4205 41.9564 24.2756 41.7391 24.2756C41.5217 24.2031 41.3043 24.2031 41.0869 24.2031C40.797 24.2031 40.5072 24.2756 40.2898 24.3481C40.0724 24.4205 39.855 24.5654 39.7101 24.7104L39.855 25.0002C39.855 25.0727 39.9275 25.0727 39.9275 25.0727H39.9999C39.9999 25.0727 40.0724 25.0727 40.1449 25.0002C40.2173 24.9278 40.2898 24.9278 40.3622 24.9278C40.4347 24.8553 40.5072 24.8553 40.6521 24.8553C40.797 24.8553 40.942 24.7828 41.0869 24.7828C41.2318 24.7828 41.3767 24.7828 41.5217 24.8553C41.6666 24.8553 41.7391 24.9278 41.8115 25.0002C41.884 25.0727 41.9564 25.1452 41.9564 25.2176C41.9564 25.2901 42.0289 25.3625 42.0289 25.435C42.0289 25.5075 42.0289 25.5799 41.9564 25.7249C41.884 25.8698 41.8115 25.8698 41.7391 25.9423C41.6666 26.0147 41.5217 26.0147 41.4492 26.0872C41.3043 26.0872 41.1593 26.1596 41.0144 26.1596H40.5072V26.6669H41.0144C41.3767 26.6669 41.5941 26.7394 41.8115 26.8843C41.9564 27.0292 42.1014 27.1741 42.1014 27.3915C42.1014 27.464 42.1014 27.6089 42.0289 27.6814C41.9564 27.7538 41.9564 27.8263 41.8115 27.8988C41.7391 27.9712 41.5941 28.0437 41.5217 28.0437C41.3767 28.1162 41.2318 28.1162 41.0869 28.1162C40.942 28.1162 40.797 28.1162 40.6521 28.0437C40.5072 27.9712 40.4347 27.9712 40.3622 27.8988C40.2898 27.8263 40.2173 27.8263 40.1449 27.7538C39.9275 27.5365 39.9275 27.5365 39.855 27.5365C39.7825 27.5365 39.7825 27.5365 39.7101 27.6089L39.4927 27.8988C39.5651 28.0437 39.7101 28.1162 39.7825 28.1886C39.9275 28.2611 39.9999 28.3336 40.1449 28.406C40.2898 28.4785 40.4347 28.4785 40.5796 28.551C40.7246 28.551 40.8695 28.6234 41.0144 28.6234C41.2318 28.6234 41.4492 28.6234 41.6666 28.551C41.884 28.4785 42.0289 28.406 42.1738 28.3336C42.3188 28.1886 42.4637 28.1162 42.5362 27.8988C42.6086 27.7538 42.6811 27.5365 42.6811 27.3915C42.6811 27.1017 42.6086 26.8843 42.4637 26.7394C42.3188 26.5944 42.0289 26.3046 41.8115 26.2321Z" fill="#383E48"/>
</g>
<g opacity="0.5">
<path d="M47.6812 24.2754H45.0001C45.0001 24.7826 44.9276 25.2899 44.8551 25.6522C44.7827 26.0145 44.7827 26.3768 44.7102 26.6667C44.6377 26.9565 44.5653 27.1739 44.4928 27.3189C44.4203 27.4638 44.3479 27.6087 44.2754 27.6812C44.203 27.7537 44.1305 27.8261 43.9856 27.8986C43.9131 27.8986 43.7682 27.971 43.6957 27.971H43.5508V30H43.9856C44.058 30 44.1305 30 44.1305 29.9276C44.1305 29.8551 44.203 29.7826 44.203 29.7102V28.4783H47.7537V29.9276H48.1885C48.2609 29.9276 48.3334 29.9276 48.3334 29.8551C48.4059 29.7826 48.4059 29.7826 48.4059 29.7102V27.8986H47.6088V24.2754H47.6812ZM46.9566 27.8986H44.8551C44.9276 27.7537 45.0001 27.6087 45.0725 27.4638C45.145 27.3189 45.2174 27.1015 45.2899 26.8116C45.3624 26.5218 45.4348 26.2319 45.4348 25.9421C45.5073 25.5797 45.5073 25.2174 45.5798 24.7826H46.8841V27.8986H46.9566Z" fill="#56593D"/>
<path d="M47.6812 24.2754H45.0001C45.0001 24.7826 44.9276 25.2899 44.8551 25.6522C44.7827 26.0145 44.7827 26.3768 44.7102 26.6667C44.6377 26.9565 44.5653 27.1739 44.4928 27.3189C44.4203 27.4638 44.3479 27.6087 44.2754 27.6812C44.203 27.7537 44.1305 27.8261 43.9856 27.8986C43.9131 27.8986 43.7682 27.971 43.6957 27.971H43.5508V30H43.9856C44.058 30 44.1305 30 44.1305 29.9276C44.1305 29.8551 44.203 29.7826 44.203 29.7102V28.4783H47.7537V29.9276H48.1885C48.2609 29.9276 48.3334 29.9276 48.3334 29.8551C48.4059 29.7826 48.4059 29.7826 48.4059 29.7102V27.8986H47.6088V24.2754H47.6812ZM46.9566 27.8986H44.8551C44.9276 27.7537 45.0001 27.6087 45.0725 27.4638C45.145 27.3189 45.2174 27.1015 45.2899 26.8116C45.3624 26.5218 45.4348 26.2319 45.4348 25.9421C45.5073 25.5797 45.5073 25.2174 45.5798 24.7826H46.8841V27.8986H46.9566Z" fill="#06214D"/>
<path d="M47.6812 24.2754H45.0001C45.0001 24.7826 44.9276 25.2899 44.8551 25.6522C44.7827 26.0145 44.7827 26.3768 44.7102 26.6667C44.6377 26.9565 44.5653 27.1739 44.4928 27.3189C44.4203 27.4638 44.3479 27.6087 44.2754 27.6812C44.203 27.7537 44.1305 27.8261 43.9856 27.8986C43.9131 27.8986 43.7682 27.971 43.6957 27.971H43.5508V30H43.9856C44.058 30 44.1305 30 44.1305 29.9276C44.1305 29.8551 44.203 29.7826 44.203 29.7102V28.4783H47.7537V29.9276H48.1885C48.2609 29.9276 48.3334 29.9276 48.3334 29.8551C48.4059 29.7826 48.4059 29.7826 48.4059 29.7102V27.8986H47.6088V24.2754H47.6812ZM46.9566 27.8986H44.8551C44.9276 27.7537 45.0001 27.6087 45.0725 27.4638C45.145 27.3189 45.2174 27.1015 45.2899 26.8116C45.3624 26.5218 45.4348 26.2319 45.4348 25.9421C45.5073 25.5797 45.5073 25.2174 45.5798 24.7826H46.8841V27.8986H46.9566Z" fill="#383E48"/>
</g>
<g opacity="0.5">
<path d="M52.2462 24.6379C52.1013 24.493 51.9564 24.4205 51.8114 24.3481C51.594 24.2756 51.4491 24.2031 51.1592 24.2031C50.7969 24.2031 50.5071 24.2756 50.2897 24.3481C49.9998 24.493 49.7824 24.6379 49.565 24.8553L49.71 25.0727C49.71 25.1452 49.7824 25.1452 49.7824 25.1452C49.7824 25.1452 49.8549 25.2176 49.9274 25.2176C49.9998 25.2176 50.0723 25.2176 50.1448 25.1452C50.2172 25.0727 50.2897 25.0727 50.3621 25.0002C50.4346 24.9278 50.5795 24.9278 50.652 24.8553C50.7969 24.7828 50.9419 24.7828 51.0868 24.7828C51.3766 24.7828 51.594 24.8553 51.739 25.0002C51.8839 25.1452 51.9563 25.435 51.9563 25.7249V26.0872C51.4491 26.0872 51.0868 26.1596 50.7245 26.2321C50.3621 26.3046 50.1448 26.377 49.9274 26.522C49.71 26.6669 49.5651 26.8118 49.4926 26.9567C49.4201 27.1017 49.3477 27.2466 49.3477 27.464C49.3477 27.6814 49.3477 27.8263 49.4201 27.9712C49.4926 28.1162 49.565 28.2611 49.71 28.3336C49.7824 28.406 49.9274 28.4785 50.0723 28.551C50.2172 28.6234 50.3621 28.6234 50.5071 28.6234C50.652 28.6234 50.7969 28.6234 50.9419 28.551C51.0868 28.551 51.2317 28.4785 51.3042 28.406C51.4491 28.3336 51.5216 28.2611 51.6665 28.1886C51.739 28.1162 51.8839 28.0437 51.9563 27.8988L52.0288 28.3336C52.0288 28.406 52.1013 28.4785 52.1013 28.4785C52.1013 28.4785 52.1737 28.4785 52.2462 28.4785H52.6085V25.7973C52.6085 25.5799 52.6085 25.3625 52.5361 25.1452C52.4636 24.9278 52.3911 24.7828 52.2462 24.6379ZM51.8839 27.464C51.8114 27.5365 51.739 27.6089 51.594 27.6814C51.5216 27.7538 51.4491 27.8263 51.3042 27.8263C51.2317 27.8988 51.0868 27.8988 51.0143 27.9712C50.9419 28.0437 50.7969 28.0437 50.652 28.0437C50.5795 28.0437 50.4346 28.0437 50.3621 28.0437C50.2897 28.0437 50.2172 27.9712 50.1448 27.8988C50.0723 27.8263 49.9998 27.7538 49.9998 27.6814C49.9998 27.6089 49.9274 27.5365 49.9274 27.3915C49.9274 27.2466 49.9274 27.1741 49.9998 27.1017C50.0723 27.0292 50.1448 26.9567 50.3621 26.8843C50.5071 26.8118 50.7245 26.7394 50.9419 26.7394C51.1593 26.7394 51.4491 26.6669 51.8114 26.6669V27.464H51.8839Z" fill="#56593D"/>
<path d="M52.2462 24.6379C52.1013 24.493 51.9564 24.4205 51.8114 24.3481C51.594 24.2756 51.4491 24.2031 51.1592 24.2031C50.7969 24.2031 50.5071 24.2756 50.2897 24.3481C49.9998 24.493 49.7824 24.6379 49.565 24.8553L49.71 25.0727C49.71 25.1452 49.7824 25.1452 49.7824 25.1452C49.7824 25.1452 49.8549 25.2176 49.9274 25.2176C49.9998 25.2176 50.0723 25.2176 50.1448 25.1452C50.2172 25.0727 50.2897 25.0727 50.3621 25.0002C50.4346 24.9278 50.5795 24.9278 50.652 24.8553C50.7969 24.7828 50.9419 24.7828 51.0868 24.7828C51.3766 24.7828 51.594 24.8553 51.739 25.0002C51.8839 25.1452 51.9563 25.435 51.9563 25.7249V26.0872C51.4491 26.0872 51.0868 26.1596 50.7245 26.2321C50.3621 26.3046 50.1448 26.377 49.9274 26.522C49.71 26.6669 49.5651 26.8118 49.4926 26.9567C49.4201 27.1017 49.3477 27.2466 49.3477 27.464C49.3477 27.6814 49.3477 27.8263 49.4201 27.9712C49.4926 28.1162 49.565 28.2611 49.71 28.3336C49.7824 28.406 49.9274 28.4785 50.0723 28.551C50.2172 28.6234 50.3621 28.6234 50.5071 28.6234C50.652 28.6234 50.7969 28.6234 50.9419 28.551C51.0868 28.551 51.2317 28.4785 51.3042 28.406C51.4491 28.3336 51.5216 28.2611 51.6665 28.1886C51.739 28.1162 51.8839 28.0437 51.9563 27.8988L52.0288 28.3336C52.0288 28.406 52.1013 28.4785 52.1013 28.4785C52.1013 28.4785 52.1737 28.4785 52.2462 28.4785H52.6085V25.7973C52.6085 25.5799 52.6085 25.3625 52.5361 25.1452C52.4636 24.9278 52.3911 24.7828 52.2462 24.6379ZM51.8839 27.464C51.8114 27.5365 51.739 27.6089 51.594 27.6814C51.5216 27.7538 51.4491 27.8263 51.3042 27.8263C51.2317 27.8988 51.0868 27.8988 51.0143 27.9712C50.9419 28.0437 50.7969 28.0437 50.652 28.0437C50.5795 28.0437 50.4346 28.0437 50.3621 28.0437C50.2897 28.0437 50.2172 27.9712 50.1448 27.8988C50.0723 27.8263 49.9998 27.7538 49.9998 27.6814C49.9998 27.6089 49.9274 27.5365 49.9274 27.3915C49.9274 27.2466 49.9274 27.1741 49.9998 27.1017C50.0723 27.0292 50.1448 26.9567 50.3621 26.8843C50.5071 26.8118 50.7245 26.7394 50.9419 26.7394C51.1593 26.7394 51.4491 26.6669 51.8114 26.6669V27.464H51.8839Z" fill="#06214D"/>
<path d="M52.2462 24.6379C52.1013 24.493 51.9564 24.4205 51.8114 24.3481C51.594 24.2756 51.4491 24.2031 51.1592 24.2031C50.7969 24.2031 50.5071 24.2756 50.2897 24.3481C49.9998 24.493 49.7824 24.6379 49.565 24.8553L49.71 25.0727C49.71 25.1452 49.7824 25.1452 49.7824 25.1452C49.7824 25.1452 49.8549 25.2176 49.9274 25.2176C49.9998 25.2176 50.0723 25.2176 50.1448 25.1452C50.2172 25.0727 50.2897 25.0727 50.3621 25.0002C50.4346 24.9278 50.5795 24.9278 50.652 24.8553C50.7969 24.7828 50.9419 24.7828 51.0868 24.7828C51.3766 24.7828 51.594 24.8553 51.739 25.0002C51.8839 25.1452 51.9563 25.435 51.9563 25.7249V26.0872C51.4491 26.0872 51.0868 26.1596 50.7245 26.2321C50.3621 26.3046 50.1448 26.377 49.9274 26.522C49.71 26.6669 49.5651 26.8118 49.4926 26.9567C49.4201 27.1017 49.3477 27.2466 49.3477 27.464C49.3477 27.6814 49.3477 27.8263 49.4201 27.9712C49.4926 28.1162 49.565 28.2611 49.71 28.3336C49.7824 28.406 49.9274 28.4785 50.0723 28.551C50.2172 28.6234 50.3621 28.6234 50.5071 28.6234C50.652 28.6234 50.7969 28.6234 50.9419 28.551C51.0868 28.551 51.2317 28.4785 51.3042 28.406C51.4491 28.3336 51.5216 28.2611 51.6665 28.1886C51.739 28.1162 51.8839 28.0437 51.9563 27.8988L52.0288 28.3336C52.0288 28.406 52.1013 28.4785 52.1013 28.4785C52.1013 28.4785 52.1737 28.4785 52.2462 28.4785H52.6085V25.7973C52.6085 25.5799 52.6085 25.3625 52.5361 25.1452C52.4636 24.9278 52.3911 24.7828 52.2462 24.6379ZM51.8839 27.464C51.8114 27.5365 51.739 27.6089 51.594 27.6814C51.5216 27.7538 51.4491 27.8263 51.3042 27.8263C51.2317 27.8988 51.0868 27.8988 51.0143 27.9712C50.9419 28.0437 50.7969 28.0437 50.652 28.0437C50.5795 28.0437 50.4346 28.0437 50.3621 28.0437C50.2897 28.0437 50.2172 27.9712 50.1448 27.8988C50.0723 27.8263 49.9998 27.7538 49.9998 27.6814C49.9998 27.6089 49.9274 27.5365 49.9274 27.3915C49.9274 27.2466 49.9274 27.1741 49.9998 27.1017C50.0723 27.0292 50.1448 26.9567 50.3621 26.8843C50.5071 26.8118 50.7245 26.7394 50.9419 26.7394C51.1593 26.7394 51.4491 26.6669 51.8114 26.6669V27.464H51.8839Z" fill="#383E48"/>
</g>
<g opacity="0.5">
<path d="M57.0292 25.9421H55.0002V24.2754H54.2031V28.4783H55.0002V26.5218H57.0292V28.4783H57.7538V24.2754H57.0292V25.9421Z" fill="#56593D"/>
<path d="M57.0292 25.9421H55.0002V24.2754H54.2031V28.4783H55.0002V26.5218H57.0292V28.4783H57.7538V24.2754H57.0292V25.9421Z" fill="#06214D"/>
<path d="M57.0292 25.9421H55.0002V24.2754H54.2031V28.4783H55.0002V26.5218H57.0292V28.4783H57.7538V24.2754H57.0292V25.9421Z" fill="#383E48"/>
</g>
<g opacity="0.5">
<path d="M62.3911 24.3479C62.3187 24.4203 62.3187 24.4203 62.2462 24.4928L60.2172 27.2464C60.2172 27.3189 60.1448 27.3189 60.1448 27.3913C60.1448 27.4638 60.0723 27.4638 60.0723 27.5363C60.0723 27.4638 60.0723 27.3913 60.0723 27.3189C60.0723 27.2464 60.0723 27.1739 60.0723 27.1739V24.2754H59.3477V28.4783H59.7824C59.8549 28.4783 59.8549 28.4783 59.9274 28.4058C59.9998 28.3334 59.9998 28.3334 60.0723 28.2609L62.1013 25.5073C62.1013 25.4348 62.1737 25.4348 62.1737 25.3623C62.1737 25.2899 62.2462 25.2899 62.2462 25.2174C62.2462 25.2899 62.2462 25.3623 62.2462 25.4348C62.2462 25.5073 62.2462 25.5797 62.2462 25.5797V28.4783H62.9708V24.2754H62.5361C62.4636 24.2754 62.4636 24.2754 62.3911 24.3479Z" fill="#56593D"/>
<path d="M62.3911 24.3479C62.3187 24.4203 62.3187 24.4203 62.2462 24.4928L60.2172 27.2464C60.2172 27.3189 60.1448 27.3189 60.1448 27.3913C60.1448 27.4638 60.0723 27.4638 60.0723 27.5363C60.0723 27.4638 60.0723 27.3913 60.0723 27.3189C60.0723 27.2464 60.0723 27.1739 60.0723 27.1739V24.2754H59.3477V28.4783H59.7824C59.8549 28.4783 59.8549 28.4783 59.9274 28.4058C59.9998 28.3334 59.9998 28.3334 60.0723 28.2609L62.1013 25.5073C62.1013 25.4348 62.1737 25.4348 62.1737 25.3623C62.1737 25.2899 62.2462 25.2899 62.2462 25.2174C62.2462 25.2899 62.2462 25.3623 62.2462 25.4348C62.2462 25.5073 62.2462 25.5797 62.2462 25.5797V28.4783H62.9708V24.2754H62.5361C62.4636 24.2754 62.4636 24.2754 62.3911 24.3479Z" fill="#06214D"/>
<path d="M62.3911 24.3479C62.3187 24.4203 62.3187 24.4203 62.2462 24.4928L60.2172 27.2464C60.2172 27.3189 60.1448 27.3189 60.1448 27.3913C60.1448 27.4638 60.0723 27.4638 60.0723 27.5363C60.0723 27.4638 60.0723 27.3913 60.0723 27.3189C60.0723 27.2464 60.0723 27.1739 60.0723 27.1739V24.2754H59.3477V28.4783H59.7824C59.8549 28.4783 59.8549 28.4783 59.9274 28.4058C59.9998 28.3334 59.9998 28.3334 60.0723 28.2609L62.1013 25.5073C62.1013 25.4348 62.1737 25.4348 62.1737 25.3623C62.1737 25.2899 62.2462 25.2899 62.2462 25.2174C62.2462 25.2899 62.2462 25.3623 62.2462 25.4348C62.2462 25.5073 62.2462 25.5797 62.2462 25.5797V28.4783H62.9708V24.2754H62.5361C62.4636 24.2754 62.4636 24.2754 62.3911 24.3479Z" fill="#383E48"/>
</g>
<g opacity="0.5">
<path d="M67.6085 24.7104C67.4636 24.5654 67.2462 24.4205 67.0288 24.3481C66.8114 24.2756 66.594 24.2031 66.3042 24.2031C66.0143 24.2031 65.7245 24.2756 65.5071 24.3481C65.2897 24.4205 65.0723 24.6379 64.8549 24.7828C64.71 25.0002 64.565 25.2176 64.4926 25.435C64.4201 25.7249 64.3477 25.9423 64.3477 26.2321C64.3477 26.5944 64.4201 26.8843 64.4926 27.1741C64.565 27.464 64.71 27.6814 64.9274 27.8988C65.0723 28.1162 65.2897 28.2611 65.5795 28.3336C65.7969 28.406 66.0868 28.4785 66.3766 28.4785C66.5216 28.4785 66.6665 28.4785 66.8114 28.406C66.9563 28.406 67.1013 28.3336 67.2462 28.2611C67.3911 28.1886 67.5361 28.1162 67.681 28.0437C67.8259 27.9712 67.8984 27.8988 68.0433 27.7538L67.8259 27.464C67.8259 27.3915 67.7535 27.3915 67.681 27.3915C67.6085 27.3915 67.6085 27.3915 67.5361 27.464C67.4636 27.5365 67.3911 27.5365 67.3187 27.6089C67.2462 27.6814 67.1013 27.6814 66.9563 27.7538C66.8114 27.8263 66.6665 27.8263 66.4491 27.8263C66.2317 27.8263 66.0868 27.8263 65.9419 27.7538C65.7969 27.6814 65.652 27.6089 65.5071 27.464C65.3621 27.3191 65.2897 27.1741 65.2172 26.9567C65.1448 26.7394 65.1448 26.522 65.0723 26.2321H67.8984C67.9708 26.2321 68.0433 26.2321 68.0433 26.1596C68.0433 26.0872 68.1158 26.0147 68.1158 25.9423C68.1158 25.6524 68.0433 25.3625 67.9708 25.1452C67.8984 25.0727 67.7535 24.8553 67.6085 24.7104ZM65.1448 25.8698C65.2172 25.5075 65.2897 25.2176 65.5071 25.0002C65.7245 24.7828 66.0143 24.7104 66.3766 24.7104C66.5216 24.7104 66.6665 24.7104 66.8114 24.7828C66.9563 24.8553 67.0288 24.9278 67.1737 25.0002C67.2462 25.0727 67.3187 25.2176 67.3911 25.3625C67.4636 25.5075 67.4636 25.6524 67.4636 25.8698H65.1448Z" fill="#56593D"/>
<path d="M67.6085 24.7104C67.4636 24.5654 67.2462 24.4205 67.0288 24.3481C66.8114 24.2756 66.594 24.2031 66.3042 24.2031C66.0143 24.2031 65.7245 24.2756 65.5071 24.3481C65.2897 24.4205 65.0723 24.6379 64.8549 24.7828C64.71 25.0002 64.565 25.2176 64.4926 25.435C64.4201 25.7249 64.3477 25.9423 64.3477 26.2321C64.3477 26.5944 64.4201 26.8843 64.4926 27.1741C64.565 27.464 64.71 27.6814 64.9274 27.8988C65.0723 28.1162 65.2897 28.2611 65.5795 28.3336C65.7969 28.406 66.0868 28.4785 66.3766 28.4785C66.5216 28.4785 66.6665 28.4785 66.8114 28.406C66.9563 28.406 67.1013 28.3336 67.2462 28.2611C67.3911 28.1886 67.5361 28.1162 67.681 28.0437C67.8259 27.9712 67.8984 27.8988 68.0433 27.7538L67.8259 27.464C67.8259 27.3915 67.7535 27.3915 67.681 27.3915C67.6085 27.3915 67.6085 27.3915 67.5361 27.464C67.4636 27.5365 67.3911 27.5365 67.3187 27.6089C67.2462 27.6814 67.1013 27.6814 66.9563 27.7538C66.8114 27.8263 66.6665 27.8263 66.4491 27.8263C66.2317 27.8263 66.0868 27.8263 65.9419 27.7538C65.7969 27.6814 65.652 27.6089 65.5071 27.464C65.3621 27.3191 65.2897 27.1741 65.2172 26.9567C65.1448 26.7394 65.1448 26.522 65.0723 26.2321H67.8984C67.9708 26.2321 68.0433 26.2321 68.0433 26.1596C68.0433 26.0872 68.1158 26.0147 68.1158 25.9423C68.1158 25.6524 68.0433 25.3625 67.9708 25.1452C67.8984 25.0727 67.7535 24.8553 67.6085 24.7104ZM65.1448 25.8698C65.2172 25.5075 65.2897 25.2176 65.5071 25.0002C65.7245 24.7828 66.0143 24.7104 66.3766 24.7104C66.5216 24.7104 66.6665 24.7104 66.8114 24.7828C66.9563 24.8553 67.0288 24.9278 67.1737 25.0002C67.2462 25.0727 67.3187 25.2176 67.3911 25.3625C67.4636 25.5075 67.4636 25.6524 67.4636 25.8698H65.1448Z" fill="#06214D"/>
<path d="M67.6085 24.7104C67.4636 24.5654 67.2462 24.4205 67.0288 24.3481C66.8114 24.2756 66.594 24.2031 66.3042 24.2031C66.0143 24.2031 65.7245 24.2756 65.5071 24.3481C65.2897 24.4205 65.0723 24.6379 64.8549 24.7828C64.71 25.0002 64.565 25.2176 64.4926 25.435C64.4201 25.7249 64.3477 25.9423 64.3477 26.2321C64.3477 26.5944 64.4201 26.8843 64.4926 27.1741C64.565 27.464 64.71 27.6814 64.9274 27.8988C65.0723 28.1162 65.2897 28.2611 65.5795 28.3336C65.7969 28.406 66.0868 28.4785 66.3766 28.4785C66.5216 28.4785 66.6665 28.4785 66.8114 28.406C66.9563 28.406 67.1013 28.3336 67.2462 28.2611C67.3911 28.1886 67.5361 28.1162 67.681 28.0437C67.8259 27.9712 67.8984 27.8988 68.0433 27.7538L67.8259 27.464C67.8259 27.3915 67.7535 27.3915 67.681 27.3915C67.6085 27.3915 67.6085 27.3915 67.5361 27.464C67.4636 27.5365 67.3911 27.5365 67.3187 27.6089C67.2462 27.6814 67.1013 27.6814 66.9563 27.7538C66.8114 27.8263 66.6665 27.8263 66.4491 27.8263C66.2317 27.8263 66.0868 27.8263 65.9419 27.7538C65.7969 27.6814 65.652 27.6089 65.5071 27.464C65.3621 27.3191 65.2897 27.1741 65.2172 26.9567C65.1448 26.7394 65.1448 26.522 65.0723 26.2321H67.8984C67.9708 26.2321 68.0433 26.2321 68.0433 26.1596C68.0433 26.0872 68.1158 26.0147 68.1158 25.9423C68.1158 25.6524 68.0433 25.3625 67.9708 25.1452C67.8984 25.0727 67.7535 24.8553 67.6085 24.7104ZM65.1448 25.8698C65.2172 25.5075 65.2897 25.2176 65.5071 25.0002C65.7245 24.7828 66.0143 24.7104 66.3766 24.7104C66.5216 24.7104 66.6665 24.7104 66.8114 24.7828C66.9563 24.8553 67.0288 24.9278 67.1737 25.0002C67.2462 25.0727 67.3187 25.2176 67.3911 25.3625C67.4636 25.5075 67.4636 25.6524 67.4636 25.8698H65.1448Z" fill="#383E48"/>
</g>
<g opacity="0.5">
<path d="M74.9273 27.5361C74.8548 27.5361 74.8548 27.5361 74.7823 27.6085C74.7099 27.681 74.6374 27.681 74.565 27.7535C74.4925 27.8259 74.42 27.8259 74.2751 27.8984C74.1302 27.9708 73.9852 27.9708 73.8403 27.9708C73.6229 27.9708 73.478 27.9708 73.3331 27.8984C73.1881 27.8259 73.0432 27.7535 72.9707 27.6085C72.8983 27.4636 72.7534 27.3187 72.7534 27.1013C72.6809 26.8839 72.6809 26.6665 72.6809 26.4491C72.6809 26.2317 72.6809 26.0143 72.7534 25.7969C72.8258 25.5795 72.8983 25.4346 72.9707 25.2897C73.0432 25.1448 73.1881 25.0723 73.3331 24.9998C73.478 24.9274 73.6954 24.8549 73.9128 24.8549C74.0577 24.8549 74.2026 24.8549 74.2751 24.9274C74.3476 24.9998 74.4925 24.9998 74.565 25.0723C74.6374 25.1448 74.7099 25.1448 74.7823 25.2172C74.8548 25.2897 74.8548 25.2897 74.9273 25.2897C74.9997 25.2897 74.9997 25.2897 74.9997 25.2897L75.0722 25.2172L75.2896 24.9274C75.1447 24.7824 74.9273 24.6375 74.7099 24.4926C74.4925 24.4201 74.2026 24.3477 73.9128 24.3477C73.6229 24.3477 73.3331 24.4201 73.0432 24.4926C72.8258 24.565 72.6084 24.7824 72.391 24.9274C72.2461 25.1448 72.1012 25.3622 72.0287 25.652C71.9563 25.9419 71.8838 26.2317 71.8838 26.5216C71.8838 26.8839 71.9563 27.1737 72.0287 27.4636C72.1012 27.7535 72.2461 27.9708 72.391 28.1158C72.536 28.3332 72.7534 28.4056 72.9707 28.5506C73.1881 28.623 73.478 28.6955 73.6954 28.6955C73.8403 28.6955 73.9852 28.6955 74.1302 28.623C74.2751 28.623 74.42 28.5506 74.565 28.4781C74.7099 28.4056 74.8548 28.3332 74.9273 28.2607C75.0722 28.1882 75.1447 28.1158 75.2171 27.9708L74.9997 27.681C74.9997 27.5361 74.9273 27.5361 74.9273 27.5361Z" fill="#56593D"/>
<path d="M74.9273 27.5361C74.8548 27.5361 74.8548 27.5361 74.7823 27.6085C74.7099 27.681 74.6374 27.681 74.565 27.7535C74.4925 27.8259 74.42 27.8259 74.2751 27.8984C74.1302 27.9708 73.9852 27.9708 73.8403 27.9708C73.6229 27.9708 73.478 27.9708 73.3331 27.8984C73.1881 27.8259 73.0432 27.7535 72.9707 27.6085C72.8983 27.4636 72.7534 27.3187 72.7534 27.1013C72.6809 26.8839 72.6809 26.6665 72.6809 26.4491C72.6809 26.2317 72.6809 26.0143 72.7534 25.7969C72.8258 25.5795 72.8983 25.4346 72.9707 25.2897C73.0432 25.1448 73.1881 25.0723 73.3331 24.9998C73.478 24.9274 73.6954 24.8549 73.9128 24.8549C74.0577 24.8549 74.2026 24.8549 74.2751 24.9274C74.3476 24.9998 74.4925 24.9998 74.565 25.0723C74.6374 25.1448 74.7099 25.1448 74.7823 25.2172C74.8548 25.2897 74.8548 25.2897 74.9273 25.2897C74.9997 25.2897 74.9997 25.2897 74.9997 25.2897L75.0722 25.2172L75.2896 24.9274C75.1447 24.7824 74.9273 24.6375 74.7099 24.4926C74.4925 24.4201 74.2026 24.3477 73.9128 24.3477C73.6229 24.3477 73.3331 24.4201 73.0432 24.4926C72.8258 24.565 72.6084 24.7824 72.391 24.9274C72.2461 25.1448 72.1012 25.3622 72.0287 25.652C71.9563 25.9419 71.8838 26.2317 71.8838 26.5216C71.8838 26.8839 71.9563 27.1737 72.0287 27.4636C72.1012 27.7535 72.2461 27.9708 72.391 28.1158C72.536 28.3332 72.7534 28.4056 72.9707 28.5506C73.1881 28.623 73.478 28.6955 73.6954 28.6955C73.8403 28.6955 73.9852 28.6955 74.1302 28.623C74.2751 28.623 74.42 28.5506 74.565 28.4781C74.7099 28.4056 74.8548 28.3332 74.9273 28.2607C75.0722 28.1882 75.1447 28.1158 75.2171 27.9708L74.9997 27.681C74.9997 27.5361 74.9273 27.5361 74.9273 27.5361Z" fill="#06214D"/>
<path d="M74.9273 27.5361C74.8548 27.5361 74.8548 27.5361 74.7823 27.6085C74.7099 27.681 74.6374 27.681 74.565 27.7535C74.4925 27.8259 74.42 27.8259 74.2751 27.8984C74.1302 27.9708 73.9852 27.9708 73.8403 27.9708C73.6229 27.9708 73.478 27.9708 73.3331 27.8984C73.1881 27.8259 73.0432 27.7535 72.9707 27.6085C72.8983 27.4636 72.7534 27.3187 72.7534 27.1013C72.6809 26.8839 72.6809 26.6665 72.6809 26.4491C72.6809 26.2317 72.6809 26.0143 72.7534 25.7969C72.8258 25.5795 72.8983 25.4346 72.9707 25.2897C73.0432 25.1448 73.1881 25.0723 73.3331 24.9998C73.478 24.9274 73.6954 24.8549 73.9128 24.8549C74.0577 24.8549 74.2026 24.8549 74.2751 24.9274C74.3476 24.9998 74.4925 24.9998 74.565 25.0723C74.6374 25.1448 74.7099 25.1448 74.7823 25.2172C74.8548 25.2897 74.8548 25.2897 74.9273 25.2897C74.9997 25.2897 74.9997 25.2897 74.9997 25.2897L75.0722 25.2172L75.2896 24.9274C75.1447 24.7824 74.9273 24.6375 74.7099 24.4926C74.4925 24.4201 74.2026 24.3477 73.9128 24.3477C73.6229 24.3477 73.3331 24.4201 73.0432 24.4926C72.8258 24.565 72.6084 24.7824 72.391 24.9274C72.2461 25.1448 72.1012 25.3622 72.0287 25.652C71.9563 25.9419 71.8838 26.2317 71.8838 26.5216C71.8838 26.8839 71.9563 27.1737 72.0287 27.4636C72.1012 27.7535 72.2461 27.9708 72.391 28.1158C72.536 28.3332 72.7534 28.4056 72.9707 28.5506C73.1881 28.623 73.478 28.6955 73.6954 28.6955C73.8403 28.6955 73.9852 28.6955 74.1302 28.623C74.2751 28.623 74.42 28.5506 74.565 28.4781C74.7099 28.4056 74.8548 28.3332 74.9273 28.2607C75.0722 28.1882 75.1447 28.1158 75.2171 27.9708L74.9997 27.681C74.9997 27.5361 74.9273 27.5361 74.9273 27.5361Z" fill="#383E48"/>
</g>
<g opacity="0.5">
<path d="M79.1305 24.6379C78.9856 24.493 78.8406 24.4205 78.6957 24.3481C78.4783 24.2756 78.3334 24.2031 78.0435 24.2031C77.6812 24.2031 77.3914 24.2756 77.174 24.3481C76.8841 24.493 76.6667 24.6379 76.4493 24.8553L76.5943 25.0727C76.5943 25.1452 76.6667 25.1452 76.6667 25.1452C76.6667 25.1452 76.7392 25.2176 76.8116 25.2176C76.8841 25.2176 76.9566 25.2176 77.029 25.1452C77.1015 25.0727 77.174 25.0727 77.2464 25.0002C77.3189 24.9278 77.4638 24.9278 77.5363 24.8553C77.6812 24.7828 77.8261 24.7828 77.9711 24.7828C78.2609 24.7828 78.4783 24.8553 78.6232 25.0002C78.7682 25.1452 78.8406 25.435 78.8406 25.7249V26.0872C78.3334 26.0872 77.9711 26.1596 77.6087 26.2321C77.2464 26.3046 77.029 26.377 76.8116 26.522C76.5943 26.6669 76.4493 26.8118 76.3769 26.9567C76.3044 27.1017 76.2319 27.2466 76.2319 27.464C76.2319 27.6814 76.2319 27.8263 76.3044 27.9712C76.3769 28.1162 76.4493 28.2611 76.5943 28.3336C76.6667 28.406 76.8116 28.4785 76.9566 28.551C77.1015 28.6234 77.2464 28.6234 77.3914 28.6234C77.5363 28.6234 77.6812 28.6234 77.8261 28.551C77.9711 28.551 78.116 28.4785 78.1885 28.406C78.3334 28.3336 78.4059 28.2611 78.5508 28.1886C78.6232 28.1162 78.7682 28.0437 78.8406 27.8988L78.9131 28.3336C78.9131 28.406 78.9856 28.4785 78.9856 28.4785C78.9856 28.4785 79.058 28.4785 79.1305 28.4785H79.4928V25.7973C79.4928 25.5799 79.4928 25.3625 79.4203 25.1452C79.3479 24.9278 79.2754 24.7828 79.1305 24.6379ZM78.7682 27.464C78.6957 27.5365 78.6232 27.6089 78.4783 27.6814C78.4059 27.7538 78.3334 27.8263 78.1885 27.8263C78.116 27.8988 77.9711 27.8988 77.8986 27.9712C77.8261 28.0437 77.6812 28.0437 77.5363 28.0437C77.4638 28.0437 77.3189 28.0437 77.2464 28.0437C77.174 28.0437 77.1015 27.9712 77.029 27.8988C76.9566 27.8263 76.8841 27.7538 76.8841 27.6814C76.8841 27.6089 76.8116 27.5365 76.8116 27.3915C76.8116 27.2466 76.8116 27.1741 76.8841 27.1017C76.9566 27.0292 77.029 26.9567 77.2464 26.8843C77.3914 26.8118 77.6087 26.7394 77.8261 26.7394C78.0435 26.7394 78.3334 26.6669 78.6957 26.6669V27.464H78.7682Z" fill="#56593D"/>
<path d="M79.1305 24.6379C78.9856 24.493 78.8406 24.4205 78.6957 24.3481C78.4783 24.2756 78.3334 24.2031 78.0435 24.2031C77.6812 24.2031 77.3914 24.2756 77.174 24.3481C76.8841 24.493 76.6667 24.6379 76.4493 24.8553L76.5943 25.0727C76.5943 25.1452 76.6667 25.1452 76.6667 25.1452C76.6667 25.1452 76.7392 25.2176 76.8116 25.2176C76.8841 25.2176 76.9566 25.2176 77.029 25.1452C77.1015 25.0727 77.174 25.0727 77.2464 25.0002C77.3189 24.9278 77.4638 24.9278 77.5363 24.8553C77.6812 24.7828 77.8261 24.7828 77.9711 24.7828C78.2609 24.7828 78.4783 24.8553 78.6232 25.0002C78.7682 25.1452 78.8406 25.435 78.8406 25.7249V26.0872C78.3334 26.0872 77.9711 26.1596 77.6087 26.2321C77.2464 26.3046 77.029 26.377 76.8116 26.522C76.5943 26.6669 76.4493 26.8118 76.3769 26.9567C76.3044 27.1017 76.2319 27.2466 76.2319 27.464C76.2319 27.6814 76.2319 27.8263 76.3044 27.9712C76.3769 28.1162 76.4493 28.2611 76.5943 28.3336C76.6667 28.406 76.8116 28.4785 76.9566 28.551C77.1015 28.6234 77.2464 28.6234 77.3914 28.6234C77.5363 28.6234 77.6812 28.6234 77.8261 28.551C77.9711 28.551 78.116 28.4785 78.1885 28.406C78.3334 28.3336 78.4059 28.2611 78.5508 28.1886C78.6232 28.1162 78.7682 28.0437 78.8406 27.8988L78.9131 28.3336C78.9131 28.406 78.9856 28.4785 78.9856 28.4785C78.9856 28.4785 79.058 28.4785 79.1305 28.4785H79.4928V25.7973C79.4928 25.5799 79.4928 25.3625 79.4203 25.1452C79.3479 24.9278 79.2754 24.7828 79.1305 24.6379ZM78.7682 27.464C78.6957 27.5365 78.6232 27.6089 78.4783 27.6814C78.4059 27.7538 78.3334 27.8263 78.1885 27.8263C78.116 27.8988 77.9711 27.8988 77.8986 27.9712C77.8261 28.0437 77.6812 28.0437 77.5363 28.0437C77.4638 28.0437 77.3189 28.0437 77.2464 28.0437C77.174 28.0437 77.1015 27.9712 77.029 27.8988C76.9566 27.8263 76.8841 27.7538 76.8841 27.6814C76.8841 27.6089 76.8116 27.5365 76.8116 27.3915C76.8116 27.2466 76.8116 27.1741 76.8841 27.1017C76.9566 27.0292 77.029 26.9567 77.2464 26.8843C77.3914 26.8118 77.6087 26.7394 77.8261 26.7394C78.0435 26.7394 78.3334 26.6669 78.6957 26.6669V27.464H78.7682Z" fill="#06214D"/>
<path d="M79.1305 24.6379C78.9856 24.493 78.8406 24.4205 78.6957 24.3481C78.4783 24.2756 78.3334 24.2031 78.0435 24.2031C77.6812 24.2031 77.3914 24.2756 77.174 24.3481C76.8841 24.493 76.6667 24.6379 76.4493 24.8553L76.5943 25.0727C76.5943 25.1452 76.6667 25.1452 76.6667 25.1452C76.6667 25.1452 76.7392 25.2176 76.8116 25.2176C76.8841 25.2176 76.9566 25.2176 77.029 25.1452C77.1015 25.0727 77.174 25.0727 77.2464 25.0002C77.3189 24.9278 77.4638 24.9278 77.5363 24.8553C77.6812 24.7828 77.8261 24.7828 77.9711 24.7828C78.2609 24.7828 78.4783 24.8553 78.6232 25.0002C78.7682 25.1452 78.8406 25.435 78.8406 25.7249V26.0872C78.3334 26.0872 77.9711 26.1596 77.6087 26.2321C77.2464 26.3046 77.029 26.377 76.8116 26.522C76.5943 26.6669 76.4493 26.8118 76.3769 26.9567C76.3044 27.1017 76.2319 27.2466 76.2319 27.464C76.2319 27.6814 76.2319 27.8263 76.3044 27.9712C76.3769 28.1162 76.4493 28.2611 76.5943 28.3336C76.6667 28.406 76.8116 28.4785 76.9566 28.551C77.1015 28.6234 77.2464 28.6234 77.3914 28.6234C77.5363 28.6234 77.6812 28.6234 77.8261 28.551C77.9711 28.551 78.116 28.4785 78.1885 28.406C78.3334 28.3336 78.4059 28.2611 78.5508 28.1886C78.6232 28.1162 78.7682 28.0437 78.8406 27.8988L78.9131 28.3336C78.9131 28.406 78.9856 28.4785 78.9856 28.4785C78.9856 28.4785 79.058 28.4785 79.1305 28.4785H79.4928V25.7973C79.4928 25.5799 79.4928 25.3625 79.4203 25.1452C79.3479 24.9278 79.2754 24.7828 79.1305 24.6379ZM78.7682 27.464C78.6957 27.5365 78.6232 27.6089 78.4783 27.6814C78.4059 27.7538 78.3334 27.8263 78.1885 27.8263C78.116 27.8988 77.9711 27.8988 77.8986 27.9712C77.8261 28.0437 77.6812 28.0437 77.5363 28.0437C77.4638 28.0437 77.3189 28.0437 77.2464 28.0437C77.174 28.0437 77.1015 27.9712 77.029 27.8988C76.9566 27.8263 76.8841 27.7538 76.8841 27.6814C76.8841 27.6089 76.8116 27.5365 76.8116 27.3915C76.8116 27.2466 76.8116 27.1741 76.8841 27.1017C76.9566 27.0292 77.029 26.9567 77.2464 26.8843C77.3914 26.8118 77.6087 26.7394 77.8261 26.7394C78.0435 26.7394 78.3334 26.6669 78.6957 26.6669V27.464H78.7682Z" fill="#383E48"/>
</g>
<g opacity="0.5">
<path d="M84.1304 24.3479C84.0579 24.4203 84.0579 24.4203 83.9855 24.4928L81.9565 27.2464C81.9565 27.3189 81.884 27.3189 81.884 27.3913C81.884 27.4638 81.8116 27.4638 81.8116 27.5363C81.8116 27.4638 81.8116 27.3913 81.8116 27.3189C81.8116 27.2464 81.8116 27.1739 81.8116 27.1739V24.2754H81.0869V28.4783H81.5217C81.5942 28.4783 81.5942 28.4783 81.6666 28.4058C81.7391 28.3334 81.7391 28.3334 81.8116 28.2609L83.8405 25.5073C83.8405 25.4348 83.913 25.4348 83.913 25.3623C83.913 25.2899 83.9855 25.2899 83.9855 25.2174C83.9855 25.2899 83.9855 25.3623 83.9855 25.4348C83.9855 25.5073 83.9855 25.5797 83.9855 25.5797V28.4783H84.7101V24.2754H84.2753C84.2029 24.2754 84.1304 24.2754 84.1304 24.3479Z" fill="#56593D"/>
<path d="M84.1304 24.3479C84.0579 24.4203 84.0579 24.4203 83.9855 24.4928L81.9565 27.2464C81.9565 27.3189 81.884 27.3189 81.884 27.3913C81.884 27.4638 81.8116 27.4638 81.8116 27.5363C81.8116 27.4638 81.8116 27.3913 81.8116 27.3189C81.8116 27.2464 81.8116 27.1739 81.8116 27.1739V24.2754H81.0869V28.4783H81.5217C81.5942 28.4783 81.5942 28.4783 81.6666 28.4058C81.7391 28.3334 81.7391 28.3334 81.8116 28.2609L83.8405 25.5073C83.8405 25.4348 83.913 25.4348 83.913 25.3623C83.913 25.2899 83.9855 25.2899 83.9855 25.2174C83.9855 25.2899 83.9855 25.3623 83.9855 25.4348C83.9855 25.5073 83.9855 25.5797 83.9855 25.5797V28.4783H84.7101V24.2754H84.2753C84.2029 24.2754 84.1304 24.2754 84.1304 24.3479Z" fill="#06214D"/>
<path d="M84.1304 24.3479C84.0579 24.4203 84.0579 24.4203 83.9855 24.4928L81.9565 27.2464C81.9565 27.3189 81.884 27.3189 81.884 27.3913C81.884 27.4638 81.8116 27.4638 81.8116 27.5363C81.8116 27.4638 81.8116 27.3913 81.8116 27.3189C81.8116 27.2464 81.8116 27.1739 81.8116 27.1739V24.2754H81.0869V28.4783H81.5217C81.5942 28.4783 81.5942 28.4783 81.6666 28.4058C81.7391 28.3334 81.7391 28.3334 81.8116 28.2609L83.8405 25.5073C83.8405 25.4348 83.913 25.4348 83.913 25.3623C83.913 25.2899 83.9855 25.2899 83.9855 25.2174C83.9855 25.2899 83.9855 25.3623 83.9855 25.4348C83.9855 25.5073 83.9855 25.5797 83.9855 25.5797V28.4783H84.7101V24.2754H84.2753C84.2029 24.2754 84.1304 24.2754 84.1304 24.3479Z" fill="#383E48"/>
</g>
<g opacity="0.5">
<path d="M82.4636 23.5506C82.6085 23.6231 82.7535 23.6231 82.9709 23.6231C83.1882 23.6231 83.3332 23.6231 83.4781 23.5506C83.623 23.4782 83.768 23.4782 83.8404 23.4057C83.9129 23.3332 84.0578 23.2608 84.0578 23.1158C84.1303 22.9709 84.1303 22.8985 84.1303 22.7535C84.1303 22.6811 84.1303 22.6811 84.0578 22.6086C84.0578 22.5361 83.9853 22.5361 83.9129 22.5361H83.4781C83.4781 22.6811 83.4781 22.7535 83.4781 22.8985C83.4781 22.9709 83.4056 23.0434 83.4056 23.1158C83.3332 23.1883 83.2607 23.1883 83.1882 23.2608C83.1158 23.2608 83.0433 23.3332 82.8984 23.3332C82.7535 23.3332 82.681 23.3332 82.6085 23.2608C82.5361 23.2608 82.4636 23.1883 82.3911 23.1158C82.3187 23.0434 82.3187 22.9709 82.3187 22.8985C82.3187 22.826 82.3187 22.6811 82.3187 22.5361H81.8839C81.8114 22.5361 81.8114 22.5361 81.739 22.6086C81.739 22.6811 81.6665 22.6811 81.6665 22.7535C81.6665 22.8985 81.6665 23.0434 81.739 23.1158C81.8114 23.2608 81.8839 23.3332 81.9564 23.4057C82.1738 23.4782 82.3187 23.5506 82.4636 23.5506Z" fill="#56593D"/>
<path d="M82.4636 23.5506C82.6085 23.6231 82.7535 23.6231 82.9709 23.6231C83.1882 23.6231 83.3332 23.6231 83.4781 23.5506C83.623 23.4782 83.768 23.4782 83.8404 23.4057C83.9129 23.3332 84.0578 23.2608 84.0578 23.1158C84.1303 22.9709 84.1303 22.8985 84.1303 22.7535C84.1303 22.6811 84.1303 22.6811 84.0578 22.6086C84.0578 22.5361 83.9853 22.5361 83.9129 22.5361H83.4781C83.4781 22.6811 83.4781 22.7535 83.4781 22.8985C83.4781 22.9709 83.4056 23.0434 83.4056 23.1158C83.3332 23.1883 83.2607 23.1883 83.1882 23.2608C83.1158 23.2608 83.0433 23.3332 82.8984 23.3332C82.7535 23.3332 82.681 23.3332 82.6085 23.2608C82.5361 23.2608 82.4636 23.1883 82.3911 23.1158C82.3187 23.0434 82.3187 22.9709 82.3187 22.8985C82.3187 22.826 82.3187 22.6811 82.3187 22.5361H81.8839C81.8114 22.5361 81.8114 22.5361 81.739 22.6086C81.739 22.6811 81.6665 22.6811 81.6665 22.7535C81.6665 22.8985 81.6665 23.0434 81.739 23.1158C81.8114 23.2608 81.8839 23.3332 81.9564 23.4057C82.1738 23.4782 82.3187 23.5506 82.4636 23.5506Z" fill="#06214D"/>
<path d="M82.4636 23.5506C82.6085 23.6231 82.7535 23.6231 82.9709 23.6231C83.1882 23.6231 83.3332 23.6231 83.4781 23.5506C83.623 23.4782 83.768 23.4782 83.8404 23.4057C83.9129 23.3332 84.0578 23.2608 84.0578 23.1158C84.1303 22.9709 84.1303 22.8985 84.1303 22.7535C84.1303 22.6811 84.1303 22.6811 84.0578 22.6086C84.0578 22.5361 83.9853 22.5361 83.9129 22.5361H83.4781C83.4781 22.6811 83.4781 22.7535 83.4781 22.8985C83.4781 22.9709 83.4056 23.0434 83.4056 23.1158C83.3332 23.1883 83.2607 23.1883 83.1882 23.2608C83.1158 23.2608 83.0433 23.3332 82.8984 23.3332C82.7535 23.3332 82.681 23.3332 82.6085 23.2608C82.5361 23.2608 82.4636 23.1883 82.3911 23.1158C82.3187 23.0434 82.3187 22.9709 82.3187 22.8985C82.3187 22.826 82.3187 22.6811 82.3187 22.5361H81.8839C81.8114 22.5361 81.8114 22.5361 81.739 22.6086C81.739 22.6811 81.6665 22.6811 81.6665 22.7535C81.6665 22.8985 81.6665 23.0434 81.739 23.1158C81.8114 23.2608 81.8839 23.3332 81.9564 23.4057C82.1738 23.4782 82.3187 23.5506 82.4636 23.5506Z" fill="#383E48"/>
</g>
<g opacity="0.5">
<path d="M85.8696 24.8551H87.4638V28.4783H88.2609V24.8551H89.8551V24.2754H85.8696V24.8551Z" fill="#56593D"/>
<path d="M85.8696 24.8551H87.4638V28.4783H88.2609V24.8551H89.8551V24.2754H85.8696V24.8551Z" fill="#06214D"/>
<path d="M85.8696 24.8551H87.4638V28.4783H88.2609V24.8551H89.8551V24.2754H85.8696V24.8551Z" fill="#383E48"/>
</g>
<g opacity="0.5">
<path d="M94.058 24.7828C93.9131 24.5654 93.6957 24.4205 93.4059 24.3481C93.116 24.2756 92.8986 24.2031 92.6088 24.2031C92.3189 24.2031 92.0291 24.2756 91.7392 24.3481C91.4493 24.4205 91.3044 24.5654 91.087 24.7828C90.8696 25.0002 90.7972 25.2176 90.6522 25.435C90.5798 25.7249 90.5073 26.0147 90.5073 26.3046C90.5073 26.6669 90.5798 26.9567 90.6522 27.1741C90.7247 27.464 90.8696 27.6814 91.087 27.8263C91.3044 27.9712 91.4493 28.1886 91.7392 28.2611C91.9566 28.3336 92.2465 28.406 92.6088 28.406C92.8986 28.406 93.1885 28.3336 93.4059 28.2611C93.6233 28.1886 93.8407 28.0437 94.058 27.8263C94.2754 27.6089 94.3479 27.3915 94.4928 27.1741C94.5653 26.8843 94.6378 26.5944 94.6378 26.3046C94.6378 25.9423 94.5653 25.6524 94.4928 25.435C94.4204 25.2176 94.2754 25.0002 94.058 24.7828ZM93.5508 27.5365C93.3334 27.8263 93.0436 27.9712 92.6088 27.9712C92.174 27.9712 91.8841 27.8263 91.6667 27.5365C91.4494 27.2466 91.3769 26.8843 91.3769 26.377C91.3769 26.1596 91.3769 25.8698 91.4493 25.7249C91.5218 25.5075 91.5943 25.3625 91.6667 25.2176C91.7392 25.0727 91.8841 25.0002 92.0291 24.9278C92.174 24.8553 92.3914 24.8553 92.6088 24.8553C93.0436 24.8553 93.3334 25.0002 93.5508 25.2901C93.7682 25.5799 93.8407 25.9423 93.8407 26.4495C93.8407 26.8843 93.7682 27.2466 93.5508 27.5365Z" fill="#56593D"/>
<path d="M94.058 24.7828C93.9131 24.5654 93.6957 24.4205 93.4059 24.3481C93.116 24.2756 92.8986 24.2031 92.6088 24.2031C92.3189 24.2031 92.0291 24.2756 91.7392 24.3481C91.4493 24.4205 91.3044 24.5654 91.087 24.7828C90.8696 25.0002 90.7972 25.2176 90.6522 25.435C90.5798 25.7249 90.5073 26.0147 90.5073 26.3046C90.5073 26.6669 90.5798 26.9567 90.6522 27.1741C90.7247 27.464 90.8696 27.6814 91.087 27.8263C91.3044 27.9712 91.4493 28.1886 91.7392 28.2611C91.9566 28.3336 92.2465 28.406 92.6088 28.406C92.8986 28.406 93.1885 28.3336 93.4059 28.2611C93.6233 28.1886 93.8407 28.0437 94.058 27.8263C94.2754 27.6089 94.3479 27.3915 94.4928 27.1741C94.5653 26.8843 94.6378 26.5944 94.6378 26.3046C94.6378 25.9423 94.5653 25.6524 94.4928 25.435C94.4204 25.2176 94.2754 25.0002 94.058 24.7828ZM93.5508 27.5365C93.3334 27.8263 93.0436 27.9712 92.6088 27.9712C92.174 27.9712 91.8841 27.8263 91.6667 27.5365C91.4494 27.2466 91.3769 26.8843 91.3769 26.377C91.3769 26.1596 91.3769 25.8698 91.4493 25.7249C91.5218 25.5075 91.5943 25.3625 91.6667 25.2176C91.7392 25.0727 91.8841 25.0002 92.0291 24.9278C92.174 24.8553 92.3914 24.8553 92.6088 24.8553C93.0436 24.8553 93.3334 25.0002 93.5508 25.2901C93.7682 25.5799 93.8407 25.9423 93.8407 26.4495C93.8407 26.8843 93.7682 27.2466 93.5508 27.5365Z" fill="#06214D"/>
<path d="M94.058 24.7828C93.9131 24.5654 93.6957 24.4205 93.4059 24.3481C93.116 24.2756 92.8986 24.2031 92.6088 24.2031C92.3189 24.2031 92.0291 24.2756 91.7392 24.3481C91.4493 24.4205 91.3044 24.5654 91.087 24.7828C90.8696 25.0002 90.7972 25.2176 90.6522 25.435C90.5798 25.7249 90.5073 26.0147 90.5073 26.3046C90.5073 26.6669 90.5798 26.9567 90.6522 27.1741C90.7247 27.464 90.8696 27.6814 91.087 27.8263C91.3044 27.9712 91.4493 28.1886 91.7392 28.2611C91.9566 28.3336 92.2465 28.406 92.6088 28.406C92.8986 28.406 93.1885 28.3336 93.4059 28.2611C93.6233 28.1886 93.8407 28.0437 94.058 27.8263C94.2754 27.6089 94.3479 27.3915 94.4928 27.1741C94.5653 26.8843 94.6378 26.5944 94.6378 26.3046C94.6378 25.9423 94.5653 25.6524 94.4928 25.435C94.4204 25.2176 94.2754 25.0002 94.058 24.7828ZM93.5508 27.5365C93.3334 27.8263 93.0436 27.9712 92.6088 27.9712C92.174 27.9712 91.8841 27.8263 91.6667 27.5365C91.4494 27.2466 91.3769 26.8843 91.3769 26.377C91.3769 26.1596 91.3769 25.8698 91.4493 25.7249C91.5218 25.5075 91.5943 25.3625 91.6667 25.2176C91.7392 25.0727 91.8841 25.0002 92.0291 24.9278C92.174 24.8553 92.3914 24.8553 92.6088 24.8553C93.0436 24.8553 93.3334 25.0002 93.5508 25.2901C93.7682 25.5799 93.8407 25.9423 93.8407 26.4495C93.8407 26.8843 93.7682 27.2466 93.5508 27.5365Z" fill="#383E48"/>
</g>
<g opacity="0.5">
<path d="M98.1882 26.2317C98.3331 26.1593 98.478 26.1593 98.623 26.0868C98.7679 26.0143 98.8403 25.9419 98.9128 25.8694C98.9853 25.7969 98.9853 25.652 99.0577 25.5795C99.0577 25.5071 99.1302 25.3622 99.1302 25.2897C99.1302 25.1448 99.1302 24.9998 99.0577 24.9274C98.9853 24.7824 98.9128 24.71 98.7679 24.6375C98.623 24.565 98.478 24.4926 98.3331 24.4201C98.1157 24.3477 97.8983 24.3477 97.6809 24.3477H96.1592V28.5506H97.7534C97.9708 28.5506 98.1882 28.5506 98.4056 28.4781C98.623 28.4056 98.7679 28.3332 98.9128 28.2607C99.0577 28.1882 99.2027 28.0433 99.2751 27.8984C99.3476 27.7535 99.4201 27.5361 99.4201 27.3911C99.4201 27.1013 99.3476 26.8839 99.1302 26.739C98.7679 26.4491 98.5505 26.3042 98.1882 26.2317ZM96.7389 24.7824H97.536C97.6809 24.7824 97.8258 24.7824 97.9708 24.8549C98.1157 24.9274 98.1882 24.9274 98.2606 24.9998C98.3331 25.0723 98.4056 25.1448 98.4056 25.2172C98.4056 25.2897 98.478 25.3621 98.478 25.4346C98.478 25.5071 98.478 25.652 98.4056 25.7245C98.3331 25.7969 98.3331 25.8694 98.2606 25.9419C98.1882 26.0143 98.1157 26.0868 97.9708 26.0868C97.8983 26.0868 97.7534 26.1593 97.6085 26.1593H96.8114V24.7824H96.7389ZM98.3331 27.7535C98.1882 27.8984 97.9708 27.9708 97.6809 27.9708H96.7389V26.594H97.6809C97.8259 26.594 97.9708 26.594 98.1157 26.6665C98.2606 26.6665 98.3331 26.739 98.4056 26.8114C98.478 26.8839 98.5505 26.9564 98.5505 27.0288C98.5505 27.1013 98.623 27.1737 98.623 27.3187C98.5505 27.4636 98.478 27.6085 98.3331 27.7535Z" fill="#56593D"/>
<path d="M98.1882 26.2317C98.3331 26.1593 98.478 26.1593 98.623 26.0868C98.7679 26.0143 98.8403 25.9419 98.9128 25.8694C98.9853 25.7969 98.9853 25.652 99.0577 25.5795C99.0577 25.5071 99.1302 25.3622 99.1302 25.2897C99.1302 25.1448 99.1302 24.9998 99.0577 24.9274C98.9853 24.7824 98.9128 24.71 98.7679 24.6375C98.623 24.565 98.478 24.4926 98.3331 24.4201C98.1157 24.3477 97.8983 24.3477 97.6809 24.3477H96.1592V28.5506H97.7534C97.9708 28.5506 98.1882 28.5506 98.4056 28.4781C98.623 28.4056 98.7679 28.3332 98.9128 28.2607C99.0577 28.1882 99.2027 28.0433 99.2751 27.8984C99.3476 27.7535 99.4201 27.5361 99.4201 27.3911C99.4201 27.1013 99.3476 26.8839 99.1302 26.739C98.7679 26.4491 98.5505 26.3042 98.1882 26.2317ZM96.7389 24.7824H97.536C97.6809 24.7824 97.8258 24.7824 97.9708 24.8549C98.1157 24.9274 98.1882 24.9274 98.2606 24.9998C98.3331 25.0723 98.4056 25.1448 98.4056 25.2172C98.4056 25.2897 98.478 25.3621 98.478 25.4346C98.478 25.5071 98.478 25.652 98.4056 25.7245C98.3331 25.7969 98.3331 25.8694 98.2606 25.9419C98.1882 26.0143 98.1157 26.0868 97.9708 26.0868C97.8983 26.0868 97.7534 26.1593 97.6085 26.1593H96.8114V24.7824H96.7389ZM98.3331 27.7535C98.1882 27.8984 97.9708 27.9708 97.6809 27.9708H96.7389V26.594H97.6809C97.8259 26.594 97.9708 26.594 98.1157 26.6665C98.2606 26.6665 98.3331 26.739 98.4056 26.8114C98.478 26.8839 98.5505 26.9564 98.5505 27.0288C98.5505 27.1013 98.623 27.1737 98.623 27.3187C98.5505 27.4636 98.478 27.6085 98.3331 27.7535Z" fill="#06214D"/>
<path d="M98.1882 26.2317C98.3331 26.1593 98.478 26.1593 98.623 26.0868C98.7679 26.0143 98.8403 25.9419 98.9128 25.8694C98.9853 25.7969 98.9853 25.652 99.0577 25.5795C99.0577 25.5071 99.1302 25.3622 99.1302 25.2897C99.1302 25.1448 99.1302 24.9998 99.0577 24.9274C98.9853 24.7824 98.9128 24.71 98.7679 24.6375C98.623 24.565 98.478 24.4926 98.3331 24.4201C98.1157 24.3477 97.8983 24.3477 97.6809 24.3477H96.1592V28.5506H97.7534C97.9708 28.5506 98.1882 28.5506 98.4056 28.4781C98.623 28.4056 98.7679 28.3332 98.9128 28.2607C99.0577 28.1882 99.2027 28.0433 99.2751 27.8984C99.3476 27.7535 99.4201 27.5361 99.4201 27.3911C99.4201 27.1013 99.3476 26.8839 99.1302 26.739C98.7679 26.4491 98.5505 26.3042 98.1882 26.2317ZM96.7389 24.7824H97.536C97.6809 24.7824 97.8258 24.7824 97.9708 24.8549C98.1157 24.9274 98.1882 24.9274 98.2606 24.9998C98.3331 25.0723 98.4056 25.1448 98.4056 25.2172C98.4056 25.2897 98.478 25.3621 98.478 25.4346C98.478 25.5071 98.478 25.652 98.4056 25.7245C98.3331 25.7969 98.3331 25.8694 98.2606 25.9419C98.1882 26.0143 98.1157 26.0868 97.9708 26.0868C97.8983 26.0868 97.7534 26.1593 97.6085 26.1593H96.8114V24.7824H96.7389ZM98.3331 27.7535C98.1882 27.8984 97.9708 27.9708 97.6809 27.9708H96.7389V26.594H97.6809C97.8259 26.594 97.9708 26.594 98.1157 26.6665C98.2606 26.6665 98.3331 26.739 98.4056 26.8114C98.478 26.8839 98.5505 26.9564 98.5505 27.0288C98.5505 27.1013 98.623 27.1737 98.623 27.3187C98.5505 27.4636 98.478 27.6085 98.3331 27.7535Z" fill="#383E48"/>
</g>
</svg>
